<svg xmlns="http://www.w3.org/2000/svg" width="135" height="152" viewBox="0 0 135 152" fill="none">
<path fill-rule="evenodd" clip-rule="evenodd" d="M99.9418 59.0331C101.437 56.6589 102.236 54.5391 102.236 52.8239C102.236 44.7337 95.6777 38.1753 87.5875 38.1753C79.4973 38.1753 72.9389 44.7337 72.9389 52.8239C72.9389 54.5391 73.7384 56.6589 75.2332 59.0331C76.7012 61.3646 78.6941 63.7146 80.7433 65.8376C82.7842 67.9521 84.8328 69.7924 86.3753 71.1064C86.8289 71.4929 87.2374 71.8328 87.5875 72.1195C87.9376 71.8328 88.3462 71.4929 88.7998 71.1064C90.3422 69.7924 92.3909 67.9521 94.4318 65.8376C96.4809 63.7146 98.4739 61.3646 99.9418 59.0331ZM87.5875 74.9154C87.5875 74.9154 104.423 62.1219 104.423 52.8239C104.423 43.5258 96.8856 35.9883 87.5875 35.9883C78.2895 35.9883 70.752 43.5258 70.752 52.8239C70.752 62.1219 87.5875 74.9154 87.5875 74.9154Z" fill="url(#paint0_linear_86986_169749)"/>
<path fill-rule="evenodd" clip-rule="evenodd" d="M87.5853 57.3254C90.2781 57.3254 92.4611 55.1424 92.4611 52.4495C92.4611 49.7567 90.2781 47.5737 87.5853 47.5737C84.8924 47.5737 82.7094 49.7567 82.7094 52.4495C82.7094 55.1424 84.8924 57.3254 87.5853 57.3254ZM87.5853 59.5123C91.486 59.5123 94.6481 56.3502 94.6481 52.4495C94.6481 48.5488 91.486 45.3867 87.5853 45.3867C83.6846 45.3867 80.5225 48.5488 80.5225 52.4495C80.5225 56.3502 83.6846 59.5123 87.5853 59.5123Z" fill="url(#paint1_linear_86986_169749)"/>
<rect x="32.75" y="25.9258" width="9.16775" height="3.6671" rx="1.83355" fill="url(#paint2_linear_86986_169749)"/>
<rect x="85.9727" y="25.9258" width="9.16775" height="3.6671" rx="1.83355" fill="url(#paint3_linear_86986_169749)"/>
<rect x="36.4268" y="40.6016" width="11.0013" height="3.6671" rx="1.83355" fill="url(#paint4_linear_86986_169749)"/>
<path fill-rule="evenodd" clip-rule="evenodd" d="M44.3154 16.9314C45.6988 13.8186 48.7857 11.8125 52.1921 11.8125H75.6686C79.075 11.8125 82.1619 13.8186 83.5454 16.9314L89.0616 29.3429C92.8148 30.9938 95.5854 34.4669 96.2533 38.642C95.3291 38.1972 94.3597 37.8316 93.3538 37.5539C92.1191 33.8061 88.6669 31.0658 84.55 30.8857H43.3298C38.1609 31.1118 34.0398 35.3738 34.0398 40.5984V49.7702C34.0398 52.1003 35.9287 53.9892 38.2588 53.9892H52.2064L55.7357 48.107C56.9618 46.0636 59.1701 44.8133 61.5531 44.8133H69.1972C70.7134 44.8133 72.1326 45.5068 73.0644 46.6729C72.5956 47.6266 72.2114 48.6294 71.9216 49.6716L71.2412 48.5375C70.8104 47.8195 70.0345 47.3802 69.1972 47.3802H61.5531C60.0717 47.3802 58.699 48.1574 57.9369 49.4277L55.2049 53.981H71.2905C71.288 54.1031 71.2867 54.2256 71.2867 54.3483C71.2867 55.0966 71.3339 55.8339 71.4255 56.5573H48.7085V62.6147C48.7085 65.3488 46.4921 67.5653 43.758 67.5653H38.2573C35.5232 67.5653 33.3067 65.3488 33.3067 62.6147V54.4116C32.1686 53.1978 31.4717 51.5654 31.4717 49.7702V40.5984C31.4717 35.5785 34.4812 31.2616 38.7945 29.3534L44.3154 16.9314ZM85.7964 28.3182H84.6181C84.4522 28.3115 84.2854 28.3082 84.1179 28.3082H43.7619C43.5944 28.3082 43.4276 28.3115 43.2617 28.3182H42.0643L46.6616 17.9741C47.633 15.7886 49.8004 14.38 52.1921 14.38H75.6686C78.0604 14.38 80.2277 15.7886 81.1991 17.9741L85.7964 28.3182ZM35.8737 62.6147V56.564H46.1416V62.6147C46.1416 63.9311 45.0744 64.9983 43.758 64.9983H38.2573C36.9409 64.9983 35.8737 63.9311 35.8737 62.6147Z" fill="url(#paint5_linear_86986_169749)"/>
<path d="M33.2831 103.81C33.2831 104.478 33.1214 105.058 32.7978 105.551C32.4743 106.044 32.0018 106.424 31.3805 106.691C30.7642 106.958 30.0145 107.092 29.1312 107.092C28.7409 107.092 28.3583 107.066 27.9834 107.015C27.6137 106.963 27.2568 106.889 26.9127 106.791C26.5738 106.688 26.2502 106.563 25.9421 106.414V104.195C26.4762 104.431 27.0308 104.645 27.606 104.835C28.1811 105.025 28.7511 105.12 29.316 105.12C29.7063 105.12 30.0196 105.068 30.2558 104.966C30.4972 104.863 30.6718 104.722 30.7796 104.542C30.8875 104.362 30.9414 104.157 30.9414 103.926C30.9414 103.643 30.8464 103.402 30.6564 103.202C30.4664 103.001 30.2045 102.814 29.8707 102.639C29.542 102.465 29.1697 102.277 28.7537 102.077C28.4918 101.954 28.2068 101.805 27.8987 101.63C27.5906 101.45 27.2978 101.232 27.0205 100.975C26.7432 100.719 26.5147 100.408 26.335 100.043C26.1604 99.6735 26.0731 99.2319 26.0731 98.7183C26.0731 98.0456 26.2271 97.4704 26.5352 96.9929C26.8434 96.5153 27.2824 96.1507 27.8525 95.899C28.4276 95.6423 29.1055 95.5139 29.8861 95.5139C30.4715 95.5139 31.0287 95.5832 31.5576 95.7218C32.0917 95.8554 32.6489 96.0505 33.2292 96.3073L32.4589 98.1637C31.9402 97.9532 31.4755 97.7914 31.0646 97.6784C30.6538 97.5603 30.2353 97.5013 29.809 97.5013C29.5112 97.5013 29.257 97.55 29.0464 97.6476C28.8359 97.74 28.6767 97.8736 28.5688 98.0482C28.461 98.2176 28.4071 98.4154 28.4071 98.6413C28.4071 98.9083 28.4841 99.1343 28.6382 99.3192C28.7974 99.4989 29.0336 99.6735 29.3469 99.843C29.6652 100.012 30.0607 100.21 30.5331 100.436C31.1083 100.708 31.5987 100.993 32.0044 101.291C32.4152 101.584 32.7311 101.931 32.9519 102.331C33.1727 102.726 33.2831 103.219 33.2831 103.81ZM37.489 94.9515V97.3934C37.489 97.8196 37.4736 98.2253 37.4428 98.6105C37.4171 98.9956 37.3965 99.2678 37.3811 99.427H37.5044C37.6893 99.1292 37.9075 98.8878 38.1592 98.7029C38.4159 98.5181 38.6984 98.382 39.0065 98.2947C39.3146 98.2074 39.6458 98.1637 40.0002 98.1637C40.6216 98.1637 41.1633 98.2741 41.6255 98.4949C42.0877 98.7106 42.4472 99.0521 42.704 99.5195C42.9607 99.9816 43.0891 100.582 43.0891 101.322V106.938H40.7397V101.907C40.7397 101.291 40.6267 100.826 40.4007 100.513C40.1748 100.2 39.8256 100.043 39.3531 100.043C38.8807 100.043 38.5084 100.154 38.2362 100.374C37.964 100.59 37.7714 100.911 37.6585 101.337C37.5455 101.758 37.489 102.275 37.489 102.886V106.938H35.1396V94.9515H37.489ZM49.0359 98.1483C50.1913 98.1483 51.0772 98.3999 51.6934 98.9032C52.3097 99.4065 52.6178 100.172 52.6178 101.199V106.938H50.977L50.5226 105.767H50.4609C50.2144 106.075 49.9628 106.326 49.706 106.522C49.4493 106.717 49.154 106.86 48.8202 106.953C48.4864 107.045 48.0807 107.092 47.6031 107.092C47.0947 107.092 46.6377 106.994 46.232 106.799C45.8314 106.604 45.5156 106.306 45.2845 105.905C45.0534 105.5 44.9378 104.986 44.9378 104.365C44.9378 103.451 45.2588 102.778 45.9007 102.346C46.5426 101.91 47.5055 101.669 48.7894 101.622L50.2838 101.576V101.199C50.2838 100.747 50.1657 100.416 49.9294 100.205C49.6932 99.9945 49.3645 99.8892 48.9434 99.8892C48.5275 99.8892 48.1192 99.9483 47.7186 100.066C47.3181 100.184 46.9175 100.333 46.517 100.513L45.739 98.9263C46.196 98.685 46.707 98.4949 47.2719 98.3563C47.8419 98.2176 48.4299 98.1483 49.0359 98.1483ZM50.2838 102.947L49.3748 102.978C48.6148 102.999 48.0858 103.135 47.788 103.386C47.4953 103.638 47.3489 103.969 47.3489 104.38C47.3489 104.74 47.4542 104.996 47.6647 105.15C47.8753 105.299 48.15 105.374 48.489 105.374C48.9922 105.374 49.4159 105.225 49.76 104.927C50.1092 104.629 50.2838 104.205 50.2838 103.656V102.947ZM59.851 98.1637C59.9691 98.1637 60.1052 98.1714 60.2592 98.1868C60.4184 98.1971 60.5468 98.2125 60.6444 98.233L60.4672 100.436C60.3902 100.41 60.2798 100.392 60.136 100.382C59.9973 100.367 59.8766 100.359 59.7739 100.359C59.4709 100.359 59.1757 100.398 58.8881 100.475C58.6056 100.552 58.3514 100.677 58.1255 100.852C57.8995 101.022 57.7198 101.248 57.5863 101.53C57.4579 101.807 57.3937 102.149 57.3937 102.554V106.938H55.0443V98.3255H56.8237L57.1703 99.7737H57.2858C57.4553 99.4809 57.6659 99.2139 57.9175 98.9725C58.1743 98.726 58.4644 98.5309 58.7879 98.3871C59.1166 98.2382 59.4709 98.1637 59.851 98.1637ZM65.7592 98.1637C66.5552 98.1637 67.2408 98.3178 67.8159 98.6259C68.3911 98.9289 68.8353 99.3705 69.1486 99.9508C69.4618 100.531 69.6184 101.24 69.6184 102.077V103.217H64.0645C64.0902 103.879 64.2879 104.401 64.6577 104.781C65.0326 105.156 65.5512 105.343 66.2137 105.343C66.7632 105.343 67.2664 105.286 67.7235 105.173C68.1805 105.061 68.6504 104.891 69.1331 104.665V106.483C68.7069 106.694 68.2601 106.848 67.7928 106.945C67.3306 107.043 66.7683 107.092 66.1058 107.092C65.2431 107.092 64.4779 106.932 63.8103 106.614C63.1479 106.296 62.6266 105.81 62.2466 105.158C61.8717 104.506 61.6843 103.684 61.6843 102.693C61.6843 101.687 61.8538 100.85 62.1927 100.182C62.5368 99.5092 63.0144 99.0059 63.6255 98.6721C64.2366 98.3332 64.9478 98.1637 65.7592 98.1637ZM65.7746 99.8353C65.3176 99.8353 64.9375 99.9816 64.6346 100.274C64.3367 100.567 64.1647 101.027 64.1185 101.653H67.4154C67.4102 101.304 67.346 100.993 67.2228 100.721C67.1047 100.449 66.9249 100.233 66.6836 100.074C66.4473 99.9149 66.1444 99.8353 65.7746 99.8353ZM74.3943 98.3255H76.9672L78.5925 103.171C78.6439 103.325 78.6875 103.481 78.7235 103.641C78.7594 103.8 78.7902 103.964 78.8159 104.134C78.8416 104.303 78.8621 104.48 78.8775 104.665H78.9237C78.9545 104.388 78.9956 104.128 79.047 103.887C79.1035 103.646 79.1728 103.407 79.255 103.171L80.8495 98.3255H83.3684L79.7248 108.039C79.504 108.635 79.2164 109.13 78.8621 109.526C78.5078 109.926 78.0995 110.227 77.6373 110.427C77.1803 110.627 76.677 110.727 76.1275 110.727C75.8605 110.727 75.6294 110.712 75.4342 110.681C75.2391 110.656 75.0722 110.627 74.9335 110.596V108.732C75.0414 108.758 75.1775 108.781 75.3418 108.802C75.5061 108.822 75.6782 108.832 75.8579 108.832C76.1866 108.832 76.469 108.763 76.7053 108.624C76.9415 108.486 77.1392 108.298 77.2984 108.062C77.4576 107.831 77.5834 107.577 77.6758 107.3L77.8145 106.876L74.3943 98.3255ZM92.4349 102.616C92.4349 103.335 92.3373 103.972 92.1422 104.526C91.9522 105.081 91.6723 105.551 91.3025 105.936C90.9379 106.316 90.4963 106.604 89.9776 106.799C89.4641 106.994 88.8838 107.092 88.2367 107.092C87.6308 107.092 87.0736 106.994 86.5652 106.799C86.0619 106.604 85.6228 106.316 85.2479 105.936C84.8782 105.551 84.5906 105.081 84.3852 104.526C84.1849 103.972 84.0848 103.335 84.0848 102.616C84.0848 101.661 84.2542 100.852 84.5932 100.19C84.9321 99.5272 85.4148 99.0239 86.0414 98.6798C86.6679 98.3358 87.4151 98.1637 88.2829 98.1637C89.0892 98.1637 89.803 98.3358 90.4244 98.6798C91.0509 99.0239 91.5413 99.5272 91.8957 100.19C92.2552 100.852 92.4349 101.661 92.4349 102.616ZM86.4804 102.616C86.4804 103.181 86.5421 103.656 86.6653 104.041C86.7886 104.426 86.9811 104.716 87.243 104.912C87.5049 105.107 87.8464 105.204 88.2675 105.204C88.6835 105.204 89.0199 105.107 89.2766 104.912C89.5385 104.716 89.7286 104.426 89.8467 104.041C89.9699 103.656 90.0315 103.181 90.0315 102.616C90.0315 102.046 89.9699 101.574 89.8467 101.199C89.7286 100.819 89.5385 100.534 89.2766 100.344C89.0147 100.154 88.6732 100.059 88.2521 100.059C87.6308 100.059 87.1788 100.272 86.8964 100.698C86.6191 101.124 86.4804 101.764 86.4804 102.616ZM102.279 98.3255V106.938H100.477L100.161 105.836H100.038C99.8529 106.129 99.6218 106.367 99.3445 106.552C99.0672 106.737 98.7617 106.873 98.4279 106.961C98.0941 107.048 97.7474 107.092 97.388 107.092C96.7717 107.092 96.2351 106.984 95.778 106.768C95.321 106.547 94.9641 106.206 94.7073 105.744C94.4557 105.281 94.3298 104.681 94.3298 103.941V98.3255H96.6793V103.356C96.6793 103.972 96.7897 104.437 97.0105 104.75C97.2313 105.063 97.5831 105.22 98.0658 105.22C98.5434 105.22 98.9183 105.112 99.1905 104.896C99.4626 104.675 99.6527 104.354 99.7605 103.933C99.8735 103.507 99.93 102.988 99.93 102.377V98.3255H102.279ZM109.551 98.1637C109.669 98.1637 109.805 98.1714 109.959 98.1868C110.119 98.1971 110.247 98.2125 110.344 98.233L110.167 100.436C110.09 100.41 109.98 100.392 109.836 100.382C109.697 100.367 109.577 100.359 109.474 100.359C109.171 100.359 108.876 100.398 108.588 100.475C108.306 100.552 108.052 100.677 107.826 100.852C107.6 101.022 107.42 101.248 107.286 101.53C107.158 101.807 107.094 102.149 107.094 102.554V106.938H104.744V98.3255H106.524L106.87 99.7737H106.986C107.155 99.4809 107.366 99.2139 107.618 98.9725C107.874 98.726 108.165 98.5309 108.488 98.3871C108.817 98.2382 109.171 98.1637 109.551 98.1637ZM41.872 123.148C43.0275 123.148 43.9133 123.4 44.5296 123.903C45.1458 124.406 45.4539 125.172 45.4539 126.199V131.938H43.8132L43.3587 130.767H43.2971C43.0506 131.075 42.799 131.326 42.5422 131.522C42.2854 131.717 41.9901 131.86 41.6563 131.953C41.3225 132.045 40.9168 132.092 40.4393 132.092C39.9309 132.092 39.4738 131.994 39.0681 131.799C38.6675 131.604 38.3517 131.306 38.1206 130.905C37.8895 130.5 37.774 129.986 37.774 129.365C37.774 128.451 38.095 127.778 38.7369 127.346C39.3788 126.91 40.3417 126.669 41.6255 126.622L43.1199 126.576V126.199C43.1199 125.747 43.0018 125.416 42.7656 125.205C42.5293 124.994 42.2007 124.889 41.7796 124.889C41.3636 124.889 40.9554 124.948 40.5548 125.066C40.1542 125.184 39.7537 125.333 39.3531 125.513L38.5751 123.926C39.0322 123.685 39.5431 123.495 40.108 123.356C40.678 123.218 41.266 123.148 41.872 123.148ZM43.1199 127.947L42.211 127.978C41.4509 127.999 40.922 128.135 40.6241 128.386C40.3314 128.638 40.1851 128.969 40.1851 129.38C40.1851 129.74 40.2903 129.996 40.5009 130.15C40.7114 130.299 40.9862 130.374 41.3251 130.374C41.8284 130.374 42.252 130.225 42.5961 129.927C42.9453 129.629 43.1199 129.205 43.1199 128.656V127.947ZM50.6073 132.092C49.647 132.092 48.8638 131.717 48.2579 130.967C47.657 130.212 47.3566 129.105 47.3566 127.647C47.3566 126.173 47.6622 125.059 48.2733 124.304C48.8844 123.544 49.6829 123.164 50.6689 123.164C51.0797 123.164 51.4418 123.22 51.755 123.333C52.0683 123.446 52.3379 123.598 52.5639 123.788C52.795 123.978 52.9901 124.191 53.1493 124.427H53.2263C53.1955 124.263 53.157 124.021 53.1108 123.703C53.0697 123.379 53.0492 123.048 53.0492 122.709V119.952H55.4063V131.938H53.6038L53.1493 130.821H53.0492C52.9002 131.057 52.7128 131.272 52.4868 131.468C52.266 131.658 52.0015 131.809 51.6934 131.922C51.3853 132.035 51.0233 132.092 50.6073 132.092ZM51.4315 130.22C52.0734 130.22 52.5254 130.03 52.7873 129.65C53.0543 129.265 53.1955 128.687 53.2109 127.917V127.662C53.2109 126.825 53.0825 126.186 52.8258 125.744C52.569 125.297 52.0914 125.074 51.393 125.074C50.8743 125.074 50.4686 125.297 50.1759 125.744C49.8832 126.191 49.7368 126.836 49.7368 127.678C49.7368 128.52 49.8832 129.154 50.1759 129.58C50.4738 130.007 50.8923 130.22 51.4315 130.22ZM60.5905 132.092C59.6301 132.092 58.847 131.717 58.241 130.967C57.6402 130.212 57.3398 129.105 57.3398 127.647C57.3398 126.173 57.6453 125.059 58.2564 124.304C58.8675 123.544 59.6661 123.164 60.6521 123.164C61.0629 123.164 61.425 123.22 61.7382 123.333C62.0515 123.446 62.3211 123.598 62.547 123.788C62.7781 123.978 62.9733 124.191 63.1325 124.427H63.2095C63.1787 124.263 63.1402 124.021 63.0939 123.703C63.0529 123.379 63.0323 123.048 63.0323 122.709V119.952H65.3895V131.938H63.5869L63.1325 130.821H63.0323C62.8834 131.057 62.696 131.272 62.47 131.468C62.2492 131.658 61.9847 131.809 61.6766 131.922C61.3685 132.035 61.0064 132.092 60.5905 132.092ZM61.4147 130.22C62.0566 130.22 62.5085 130.03 62.7704 129.65C63.0375 129.265 63.1787 128.687 63.1941 127.917V127.662C63.1941 126.825 63.0657 126.186 62.8089 125.744C62.5522 125.297 62.0746 125.074 61.3762 125.074C60.8575 125.074 60.4518 125.297 60.1591 125.744C59.8664 126.191 59.72 126.836 59.72 127.678C59.72 128.52 59.8664 129.154 60.1591 129.58C60.4569 130.007 60.8755 130.22 61.4147 130.22ZM72.6534 123.164C72.7716 123.164 72.9076 123.171 73.0617 123.187C73.2209 123.197 73.3493 123.213 73.4469 123.233L73.2697 125.436C73.1927 125.41 73.0822 125.392 72.9385 125.382C72.7998 125.367 72.6791 125.359 72.5764 125.359C72.2734 125.359 71.9781 125.398 71.6906 125.475C71.4081 125.552 71.1539 125.677 70.928 125.852C70.702 126.022 70.5223 126.248 70.3887 126.53C70.2604 126.807 70.1962 127.149 70.1962 127.554V131.938H67.8467V123.325H69.6261L69.9728 124.774H70.0883C70.2578 124.481 70.4683 124.214 70.72 123.973C70.9767 123.726 71.2669 123.531 71.5904 123.387C71.9191 123.238 72.2734 123.164 72.6534 123.164ZM78.5617 123.164C79.3577 123.164 80.0432 123.318 80.6184 123.626C81.1936 123.929 81.6378 124.371 81.951 124.951C82.2643 125.531 82.4209 126.24 82.4209 127.077V128.217H76.867C76.8927 128.879 77.0904 129.401 77.4601 129.781C77.835 130.156 78.3537 130.343 79.0162 130.343C79.5656 130.343 80.0689 130.286 80.526 130.173C80.983 130.061 81.4529 129.891 81.9356 129.665V131.483C81.5094 131.694 81.0626 131.848 80.5953 131.945C80.1331 132.043 79.5708 132.092 78.9083 132.092C78.0456 132.092 77.2804 131.932 76.6128 131.614C75.9503 131.296 75.4291 130.81 75.0491 130.158C74.6742 129.506 74.4868 128.684 74.4868 127.693C74.4868 126.687 74.6562 125.85 74.9952 125.182C75.3392 124.509 75.8168 124.006 76.4279 123.672C77.039 123.333 77.7503 123.164 78.5617 123.164ZM78.5771 124.835C78.12 124.835 77.74 124.982 77.437 125.274C77.1392 125.567 76.9671 126.027 76.9209 126.653H80.2178C80.2127 126.304 80.1485 125.993 80.0253 125.721C79.9071 125.449 79.7274 125.233 79.486 125.074C79.2498 124.915 78.9468 124.835 78.5771 124.835ZM90.3397 129.38C90.3397 129.966 90.201 130.461 89.9237 130.867C89.6515 131.267 89.2433 131.573 88.6989 131.783C88.1546 131.989 87.4767 132.092 86.6653 132.092C86.0645 132.092 85.5484 132.053 85.117 131.976C84.6908 131.899 84.2594 131.771 83.8229 131.591V129.65C84.2902 129.86 84.7909 130.035 85.325 130.173C85.8642 130.307 86.3366 130.374 86.7423 130.374C87.1994 130.374 87.5255 130.307 87.7206 130.173C87.9209 130.035 88.021 129.855 88.021 129.634C88.021 129.49 87.98 129.362 87.8978 129.249C87.8208 129.131 87.6513 129 87.3894 128.856C87.1275 128.707 86.7167 128.515 86.1569 128.279C85.6177 128.053 85.1735 127.824 84.8243 127.593C84.4802 127.362 84.2234 127.09 84.054 126.776C83.8896 126.458 83.8075 126.055 83.8075 125.567C83.8075 124.771 84.1156 124.173 84.7318 123.772C85.3532 123.367 86.1826 123.164 87.2199 123.164C87.754 123.164 88.2624 123.218 88.7451 123.325C89.233 123.433 89.7337 123.605 90.2472 123.842L89.5385 125.536C89.1123 125.351 88.7092 125.2 88.3292 125.082C87.9543 124.964 87.5717 124.905 87.1814 124.905C86.8373 124.905 86.578 124.951 86.4034 125.043C86.2288 125.136 86.1415 125.277 86.1415 125.467C86.1415 125.606 86.1851 125.729 86.2724 125.837C86.3649 125.945 86.5395 126.065 86.7963 126.199C87.0582 126.327 87.4407 126.494 87.944 126.699C88.4319 126.9 88.8555 127.11 89.215 127.331C89.5745 127.547 89.8518 127.816 90.0469 128.14C90.2421 128.458 90.3397 128.872 90.3397 129.38ZM98.1814 129.38C98.1814 129.966 98.0427 130.461 97.7654 130.867C97.4932 131.267 97.085 131.573 96.5406 131.783C95.9963 131.989 95.3184 132.092 94.507 132.092C93.9062 132.092 93.3901 132.053 92.9587 131.976C92.5325 131.899 92.1011 131.771 91.6646 131.591V129.65C92.1319 129.86 92.6326 130.035 93.1667 130.173C93.7059 130.307 94.1784 130.374 94.584 130.374C95.0411 130.374 95.3672 130.307 95.5623 130.173C95.7626 130.035 95.8628 129.855 95.8628 129.634C95.8628 129.49 95.8217 129.362 95.7395 129.249C95.6625 129.131 95.493 129 95.2311 128.856C94.9692 128.707 94.5584 128.515 93.9986 128.279C93.4594 128.053 93.0152 127.824 92.666 127.593C92.3219 127.362 92.0651 127.09 91.8957 126.776C91.7313 126.458 91.6492 126.055 91.6492 125.567C91.6492 124.771 91.9573 124.173 92.5735 123.772C93.1949 123.367 94.0243 123.164 95.0616 123.164C95.5957 123.164 96.1041 123.218 96.5868 123.325C97.0747 123.433 97.5754 123.605 98.0889 123.842L97.3803 125.536C96.954 125.351 96.5509 125.2 96.1709 125.082C95.796 124.964 95.4134 124.905 95.0231 124.905C94.679 124.905 94.4197 124.951 94.2451 125.043C94.0705 125.136 93.9832 125.277 93.9832 125.467C93.9832 125.606 94.0269 125.729 94.1142 125.837C94.2066 125.945 94.3812 126.065 94.638 126.199C94.8999 126.327 95.2825 126.494 95.7857 126.699C96.2736 126.9 96.6972 127.11 97.0567 127.331C97.4162 127.547 97.6935 127.816 97.8887 128.14C98.0838 128.458 98.1814 128.872 98.1814 129.38Z" fill="#14142B"/>
<defs>
<linearGradient id="paint0_linear_86986_169749" x1="71.0581" y1="71.5467" x2="107.355" y2="65.876" gradientUnits="userSpaceOnUse">
<stop stop-color="#0060EF"/>
<stop offset="0.505208" stop-color="#150190"/>
<stop offset="1" stop-color="#8601F0"/>
</linearGradient>
<linearGradient id="paint1_linear_86986_169749" x1="80.6509" y1="58.2899" x2="95.7571" y2="55.5615" gradientUnits="userSpaceOnUse">
<stop stop-color="#0060EF"/>
<stop offset="0.505208" stop-color="#150190"/>
<stop offset="1" stop-color="#8601F0"/>
</linearGradient>
<linearGradient id="paint2_linear_86986_169749" x1="32.8333" y1="29.2755" x2="41.2428" y2="25.4783" gradientUnits="userSpaceOnUse">
<stop stop-color="#0060EF"/>
<stop offset="0.505208" stop-color="#150190"/>
<stop offset="1" stop-color="#8601F0"/>
</linearGradient>
<linearGradient id="paint3_linear_86986_169749" x1="86.056" y1="29.2755" x2="94.4654" y2="25.4783" gradientUnits="userSpaceOnUse">
<stop stop-color="#0060EF"/>
<stop offset="0.505208" stop-color="#150190"/>
<stop offset="1" stop-color="#8601F0"/>
</linearGradient>
<linearGradient id="paint4_linear_86986_169749" x1="36.5268" y1="43.9513" x2="45.9182" y2="38.8625" gradientUnits="userSpaceOnUse">
<stop stop-color="#0060EF"/>
<stop offset="0.505208" stop-color="#150190"/>
<stop offset="1" stop-color="#8601F0"/>
</linearGradient>
<linearGradient id="paint5_linear_86986_169749" x1="32.0606" y1="62.7405" x2="100.582" y2="48.3602" gradientUnits="userSpaceOnUse">
<stop stop-color="#0060EF"/>
<stop offset="0.505208" stop-color="#150190"/>
<stop offset="1" stop-color="#8601F0"/>
</linearGradient>
</defs>
</svg>