<svg xmlns="http://www.w3.org/2000/svg" width="102" height="103" viewBox="0 0 102 103" fill="none">
<rect x="13.2422" y="14.8164" width="9.44717" height="3.77887" rx="1.88943" fill="url(#paint0_linear_86986_169695)"/>
<rect x="68.0859" y="14.8164" width="9.44717" height="3.77887" rx="1.88943" fill="url(#paint1_linear_86986_169695)"/>
<rect x="17.0156" y="29.9375" width="11.3366" height="3.77887" rx="1.88943" fill="url(#paint2_linear_86986_169695)"/>
<path fill-rule="evenodd" clip-rule="evenodd" d="M70.9084 27.4738C61.724 27.4738 54.2785 34.9193 54.2785 44.1037C54.2785 53.2882 61.724 60.7337 70.9084 60.7337C80.0929 60.7337 87.5384 53.2882 87.5384 44.1037C87.5384 34.9193 80.0929 27.4738 70.9084 27.4738ZM51.6328 44.1037C51.6328 33.4581 60.2628 24.8281 70.9084 24.8281C81.554 24.8281 90.184 33.4581 90.184 44.1037C90.184 54.7494 81.554 63.3793 70.9084 63.3793C60.2628 63.3793 51.6328 54.7494 51.6328 44.1037Z" fill="url(#paint3_linear_86986_169695)"/>
<path fill-rule="evenodd" clip-rule="evenodd" d="M61.0938 44.5882C61.0938 43.8578 61.6859 43.2656 62.4164 43.2656H80.366C81.0964 43.2656 81.6886 43.8578 81.6886 44.5882C81.6886 45.3187 81.0964 45.9108 80.366 45.9108H62.4164C61.6859 45.9108 61.0938 45.3187 61.0938 44.5882Z" fill="url(#paint4_linear_86986_169695)"/>
<path fill-rule="evenodd" clip-rule="evenodd" d="M71.3961 34.2812C72.1266 34.2812 72.7187 34.8734 72.7187 35.6039L72.7187 53.5535C72.7187 54.2839 72.1266 54.8761 71.3961 54.8761C70.6657 54.8761 70.0735 54.2839 70.0735 53.5535L70.0735 35.6039C70.0735 34.8734 70.6657 34.2812 71.3961 34.2812Z" fill="url(#paint5_linear_86986_169695)"/>
<path fill-rule="evenodd" clip-rule="evenodd" d="M25.1566 5.54832C26.5822 2.34066 29.7632 0.273438 33.2734 0.273438H57.4655C60.9757 0.273438 64.1566 2.34066 65.5823 5.54832L71.2673 18.3396C75.1347 20.0408 77.9896 23.6196 78.6779 27.9217C77.7256 27.4636 76.7267 27.087 75.6902 26.8011C74.4147 22.9292 70.8425 20.1007 66.5858 19.928H24.1735C18.8321 20.1447 14.5683 24.5434 14.5683 29.938V39.3894C14.5683 41.7905 16.5148 43.737 18.9159 43.737H33.2851L36.9221 37.6754C38.1855 35.5697 40.4611 34.2812 42.9167 34.2812H50.7939C52.3585 34.2812 53.8229 34.998 54.783 36.2027C54.2998 37.1861 53.904 38.2202 53.6057 39.2949L52.9001 38.119C52.4562 37.3791 51.6567 36.9265 50.7939 36.9265H42.9167C41.3903 36.9265 39.9757 37.7274 39.1903 39.0363L36.3751 43.7284H52.9571C52.9544 43.8547 52.9531 43.9812 52.9531 44.1081C52.9531 44.8788 53.0017 45.6382 53.096 46.3834H29.6837V52.6225C29.6837 55.44 27.3997 57.724 24.5823 57.724H18.914C16.0965 57.724 13.8125 55.44 13.8125 52.6225V44.1719C12.6399 42.9211 11.9219 41.2391 11.9219 39.3894V29.938C11.9219 24.7657 15.0226 20.3175 19.4666 18.3509L25.1566 5.54832ZM67.902 17.2822H66.6531C66.4937 17.2762 66.3335 17.2732 66.1727 17.2732H24.5867C24.4258 17.2732 24.2657 17.2762 24.1063 17.2822H22.8369L27.5743 6.62288C28.5753 4.37069 30.8088 2.91924 33.2734 2.91924H57.4655C59.9301 2.91924 62.1635 4.37069 63.1645 6.62288L67.902 17.2822ZM16.4577 52.6225V46.3874H27.0385V52.6225C27.0385 53.9791 25.9388 55.0788 24.5823 55.0788H18.914C17.5574 55.0788 16.4577 53.9791 16.4577 52.6225Z" fill="url(#paint6_linear_86986_169695)"/>
<path d="M9.25746 95.3984L8.44094 92.7178H4.33521L3.51868 95.3984H0.945862L4.92064 84.0903H7.8401L11.8303 95.3984H9.25746ZM7.87091 90.715L7.05439 88.0959C7.00303 87.9213 6.93371 87.6979 6.8464 87.4258C6.76424 87.1485 6.6795 86.8686 6.5922 86.5861C6.51004 86.2986 6.44328 86.0495 6.39192 85.8389C6.34057 86.0495 6.26867 86.3114 6.17624 86.6247C6.08894 86.9328 6.0042 87.2255 5.92204 87.5028C5.83987 87.7801 5.78081 87.9778 5.74487 88.0959L4.93605 90.715H7.87091ZM15.7974 95.5525C14.837 95.5525 14.0539 95.1776 13.4479 94.4279C12.8471 93.673 12.5467 92.5663 12.5467 91.1078C12.5467 89.634 12.8522 88.5196 13.4633 87.7647C14.0744 87.0047 14.873 86.6247 15.859 86.6247C16.2698 86.6247 16.6319 86.6811 16.9451 86.7941C17.2584 86.9071 17.528 87.0586 17.7539 87.2486C17.985 87.4386 18.1802 87.6517 18.3394 87.888H18.4164C18.3856 87.7236 18.3471 87.4823 18.3009 87.1639C18.2598 86.8403 18.2392 86.5091 18.2392 86.1702V83.4125H20.5964V95.3984H18.7938L18.3394 94.2815H18.2392C18.0903 94.5177 17.9029 94.7334 17.6769 94.9286C17.4561 95.1186 17.1916 95.2701 16.8835 95.383C16.5754 95.496 16.2133 95.5525 15.7974 95.5525ZM16.6216 93.6807C17.2635 93.6807 17.7154 93.4906 17.9773 93.1106C18.2444 92.7255 18.3856 92.1477 18.401 91.3774V91.1232C18.401 90.2862 18.2726 89.6468 18.0158 89.2052C17.7591 88.7584 17.2815 88.535 16.5831 88.535C16.0644 88.535 15.6587 88.7584 15.366 89.2052C15.0733 89.652 14.9269 90.2964 14.9269 91.1386C14.9269 91.9808 15.0733 92.6151 15.366 93.0413C15.6638 93.4675 16.0824 93.6807 16.6216 93.6807ZM25.7805 95.5525C24.8202 95.5525 24.0371 95.1776 23.4311 94.4279C22.8302 93.673 22.5298 92.5663 22.5298 91.1078C22.5298 89.634 22.8354 88.5196 23.4465 87.7647C24.0576 87.0047 24.8562 86.6247 25.8421 86.6247C26.253 86.6247 26.615 86.6811 26.9283 86.7941C27.2415 86.9071 27.5111 87.0586 27.7371 87.2486C27.9682 87.4386 28.1633 87.6517 28.3225 87.888H28.3996C28.3687 87.7236 28.3302 87.4823 28.284 87.1639C28.2429 86.8403 28.2224 86.5091 28.2224 86.1702V83.4125H30.5795V95.3984H28.777L28.3225 94.2815H28.2224C28.0735 94.5177 27.886 94.7334 27.6601 94.9286C27.4392 95.1186 27.1748 95.2701 26.8667 95.383C26.5585 95.496 26.1965 95.5525 25.7805 95.5525ZM26.6047 93.6807C27.2467 93.6807 27.6986 93.4906 27.9605 93.1106C28.2275 92.7255 28.3687 92.1477 28.3842 91.3774V91.1232C28.3842 90.2862 28.2558 89.6468 27.999 89.2052C27.7422 88.7584 27.2646 88.535 26.5662 88.535C26.0476 88.535 25.6419 88.7584 25.3491 89.2052C25.0564 89.652 24.9101 90.2964 24.9101 91.1386C24.9101 91.9808 25.0564 92.6151 25.3491 93.0413C25.647 93.4675 26.0655 93.6807 26.6047 93.6807ZM35.9023 86.7864H38.4752L40.1005 91.6316C40.1519 91.7857 40.1955 91.9423 40.2315 92.1015C40.2674 92.2607 40.2982 92.4251 40.3239 92.5945C40.3496 92.764 40.3701 92.9412 40.3855 93.126H40.4317C40.4625 92.8487 40.5036 92.5894 40.555 92.348C40.6115 92.1067 40.6808 91.8679 40.763 91.6316L42.3575 86.7864H44.8764L41.2329 96.5C41.012 97.0957 40.7245 97.5912 40.3701 97.9867C40.0158 98.3872 39.6075 98.6876 39.1453 98.8879C38.6883 99.0882 38.185 99.1883 37.6355 99.1883C37.3685 99.1883 37.1374 99.1729 36.9422 99.1421C36.7471 99.1164 36.5802 99.0882 36.4416 99.0574V97.1932C36.5494 97.2189 36.6855 97.242 36.8498 97.2626C37.0141 97.2831 37.1862 97.2934 37.3659 97.2934C37.6946 97.2934 37.977 97.2241 38.2133 97.0854C38.4495 96.9468 38.6472 96.7593 38.8064 96.5231C38.9656 96.292 39.0914 96.0378 39.1838 95.7605L39.3225 95.3368L35.9023 86.7864ZM53.9429 91.077C53.9429 91.796 53.8453 92.4328 53.6502 92.9874C53.4602 93.542 53.1803 94.0119 52.8105 94.397C52.4459 94.7771 52.0043 95.0646 51.4856 95.2598C50.9721 95.4549 50.3918 95.5525 49.7447 95.5525C49.1388 95.5525 48.5816 95.4549 48.0732 95.2598C47.5699 95.0646 47.1308 94.7771 46.7559 94.397C46.3862 94.0119 46.0986 93.542 45.8932 92.9874C45.6929 92.4328 45.5928 91.796 45.5928 91.077C45.5928 90.1218 45.7623 89.313 46.1012 88.6506C46.4401 87.9881 46.9228 87.4848 47.5494 87.1408C48.1759 86.7967 48.9231 86.6247 49.7909 86.6247C50.5972 86.6247 51.311 86.7967 51.9324 87.1408C52.5589 87.4848 53.0493 87.9881 53.4037 88.6506C53.7632 89.313 53.9429 90.1218 53.9429 91.077ZM47.9884 91.077C47.9884 91.6419 48.0501 92.1169 48.1733 92.5021C48.2966 92.8872 48.4891 93.1774 48.751 93.3725C49.0129 93.5677 49.3544 93.6652 49.7755 93.6652C50.1915 93.6652 50.5279 93.5677 50.7846 93.3725C51.0465 93.1774 51.2366 92.8872 51.3547 92.5021C51.4779 92.1169 51.5395 91.6419 51.5395 91.077C51.5395 90.507 51.4779 90.0345 51.3547 89.6597C51.2366 89.2796 51.0465 88.9946 50.7846 88.8046C50.5227 88.6146 50.1812 88.5196 49.7601 88.5196C49.1388 88.5196 48.6868 88.7327 48.4044 89.159C48.1271 89.5852 47.9884 90.2246 47.9884 91.077ZM63.7874 86.7864V95.3984H61.9849L61.6691 94.2969H61.5458C61.3609 94.5896 61.1299 94.8284 60.8525 95.0133C60.5752 95.1982 60.2697 95.3342 59.9359 95.4215C59.6021 95.5088 59.2554 95.5525 58.896 95.5525C58.2797 95.5525 57.7431 95.4447 57.286 95.229C56.829 95.0081 56.4721 94.6666 56.2153 94.2045C55.9637 93.7423 55.8379 93.1414 55.8379 92.4019V86.7864H58.1873V91.8165C58.1873 92.4328 58.2977 92.8975 58.5185 93.2108C58.7393 93.524 59.0911 93.6807 59.5738 93.6807C60.0514 93.6807 60.4263 93.5728 60.6985 93.3571C60.9707 93.1363 61.1607 92.8153 61.2685 92.3942C61.3815 91.968 61.438 91.4493 61.438 90.8382V86.7864H63.7874ZM71.0591 86.6247C71.1772 86.6247 71.3133 86.6324 71.4674 86.6478C71.6266 86.658 71.7549 86.6734 71.8525 86.694L71.6753 88.8971C71.5983 88.8714 71.4879 88.8534 71.3441 88.8431C71.2055 88.8277 71.0848 88.82 70.9821 88.82C70.6791 88.82 70.3838 88.8585 70.0962 88.9356C69.8138 89.0126 69.5596 89.1384 69.3336 89.313C69.1077 89.4825 68.9279 89.7084 68.7944 89.9909C68.666 90.2682 68.6018 90.6097 68.6018 91.0154V95.3984H66.2524V86.7864H68.0318L68.3784 88.2346H68.494C68.6634 87.9419 68.874 87.6748 69.1256 87.4335C69.3824 87.187 69.6725 86.9918 69.9961 86.848C70.3247 86.6991 70.6791 86.6247 71.0591 86.6247ZM81.0114 95.5525C80.159 95.5525 79.4323 95.3984 78.8315 95.0903C78.2306 94.7771 77.7736 94.2943 77.4603 93.6421C77.1471 92.9899 76.9905 92.1555 76.9905 91.1386C76.9905 90.0859 77.1676 89.2283 77.522 88.5658C77.8814 87.8982 78.377 87.4078 79.0087 87.0945C79.6454 86.7813 80.3824 86.6247 81.2194 86.6247C81.8151 86.6247 82.3287 86.6837 82.76 86.8018C83.1965 86.9148 83.5766 87.0509 83.9001 87.2101L83.2068 89.028C82.8371 88.8791 82.493 88.7584 82.1746 88.666C81.8562 88.5684 81.5378 88.5196 81.2194 88.5196C80.8086 88.5196 80.4671 88.6172 80.1949 88.8123C79.9227 89.0023 79.7199 89.2899 79.5864 89.6751C79.4529 90.0602 79.3861 90.5429 79.3861 91.1232C79.3861 91.6933 79.458 92.1657 79.6018 92.5406C79.7456 92.9155 79.9536 93.1954 80.2257 93.3802C80.4979 93.56 80.8291 93.6498 81.2194 93.6498C81.7073 93.6498 82.1412 93.5857 82.5212 93.4573C82.9013 93.3237 83.271 93.1389 83.6305 92.9026V94.9131C83.271 95.1391 82.8936 95.3009 82.4981 95.3984C82.1078 95.5011 81.6123 95.5525 81.0114 95.5525ZM89.1613 86.6092C90.3167 86.6092 91.2026 86.8609 91.8188 87.3641C92.4351 87.8674 92.7432 88.6326 92.7432 89.6597V95.3984H91.1024L90.648 94.2276H90.5863C90.3398 94.5357 90.0882 94.7873 89.8314 94.9825C89.5747 95.1776 89.2794 95.3214 88.9456 95.4138C88.6118 95.5063 88.2061 95.5525 87.7285 95.5525C87.2201 95.5525 86.7631 95.4549 86.3574 95.2598C85.9568 95.0646 85.641 94.7668 85.4099 94.3662C85.1788 93.9605 85.0633 93.447 85.0633 92.8256C85.0633 91.9115 85.3842 91.2388 86.0261 90.8074C86.6681 90.3709 87.6309 90.1295 88.9148 90.0833L90.4092 90.0371V89.6597C90.4092 89.2077 90.2911 88.8765 90.0548 88.666C89.8186 88.4554 89.4899 88.3501 89.0688 88.3501C88.6529 88.3501 88.2446 88.4092 87.8441 88.5273C87.4435 88.6454 87.0429 88.7943 86.6424 88.9741L85.8644 87.3873C86.3214 87.1459 86.8324 86.9559 87.3973 86.8172C87.9673 86.6786 88.5553 86.6092 89.1613 86.6092ZM90.4092 91.4083L89.5002 91.4391C88.7402 91.4596 88.2112 91.5957 87.9134 91.8473C87.6207 92.099 87.4743 92.4302 87.4743 92.841C87.4743 93.2005 87.5796 93.4573 87.7901 93.6113C88.0007 93.7603 88.2754 93.8347 88.6144 93.8347C89.1176 93.8347 89.5413 93.6858 89.8854 93.3879C90.2346 93.0901 90.4092 92.6664 90.4092 92.1169V91.4083ZM99.9764 86.6247C100.094 86.6247 100.231 86.6324 100.385 86.6478C100.544 86.658 100.672 86.6734 100.77 86.694L100.593 88.8971C100.516 88.8714 100.405 88.8534 100.261 88.8431C100.123 88.8277 100.002 88.82 99.8993 88.82C99.5964 88.82 99.3011 88.8585 99.0135 88.9356C98.731 89.0126 98.4768 89.1384 98.2509 89.313C98.0249 89.4825 97.8452 89.7084 97.7117 89.9909C97.5833 90.2682 97.5191 90.6097 97.5191 91.0154V95.3984H95.1697V86.7864H96.9491L97.2957 88.2346H97.4113C97.5807 87.9419 97.7913 87.6748 98.0429 87.4335C98.2997 87.187 98.5898 86.9918 98.9133 86.848C99.242 86.6991 99.5964 86.6247 99.9764 86.6247Z" fill="#14142B"/>
<defs>
<linearGradient id="paint0_linear_86986_169695" x1="13.3281" y1="18.2683" x2="21.9938" y2="14.3553" gradientUnits="userSpaceOnUse">
<stop stop-color="#0060EF"/>
<stop offset="0.505208" stop-color="#150190"/>
<stop offset="1" stop-color="#8601F0"/>
</linearGradient>
<linearGradient id="paint1_linear_86986_169695" x1="68.1718" y1="18.2683" x2="76.8376" y2="14.3553" gradientUnits="userSpaceOnUse">
<stop stop-color="#0060EF"/>
<stop offset="0.505208" stop-color="#150190"/>
<stop offset="1" stop-color="#8601F0"/>
</linearGradient>
<linearGradient id="paint2_linear_86986_169695" x1="17.1187" y1="33.3894" x2="26.7964" y2="28.1455" gradientUnits="userSpaceOnUse">
<stop stop-color="#0060EF"/>
<stop offset="0.505208" stop-color="#150190"/>
<stop offset="1" stop-color="#8601F0"/>
</linearGradient>
<linearGradient id="paint3_linear_86986_169695" x1="51.9833" y1="60.0432" x2="93.2108" y2="52.5968" gradientUnits="userSpaceOnUse">
<stop stop-color="#0060EF"/>
<stop offset="0.505208" stop-color="#150190"/>
<stop offset="1" stop-color="#8601F0"/>
</linearGradient>
<linearGradient id="paint4_linear_86986_169695" x1="61.281" y1="45.6819" x2="68.9193" y2="34.9407" gradientUnits="userSpaceOnUse">
<stop stop-color="#0060EF"/>
<stop offset="0.505208" stop-color="#150190"/>
<stop offset="1" stop-color="#8601F0"/>
</linearGradient>
<linearGradient id="paint5_linear_86986_169695" x1="70.3025" y1="34.4685" x2="81.0437" y2="42.1068" gradientUnits="userSpaceOnUse">
<stop stop-color="#0060EF"/>
<stop offset="0.505208" stop-color="#150190"/>
<stop offset="1" stop-color="#8601F0"/>
</linearGradient>
<linearGradient id="paint6_linear_86986_169695" x1="12.5287" y1="52.7523" x2="83.1379" y2="37.9334" gradientUnits="userSpaceOnUse">
<stop stop-color="#0060EF"/>
<stop offset="0.505208" stop-color="#150190"/>
<stop offset="1" stop-color="#8601F0"/>
</linearGradient>
</defs>
</svg>