<svg xmlns="http://www.w3.org/2000/svg" width="56" height="56" viewBox="0 0 56 56" fill="none">
<rect width="300" height="56" rx="28" fill="#FCFCFC"/>
<rect x="10" y="10" width="36" height="36" rx="18" fill="#0060EF"/>
<path d="M34.6663 36.9167C34.583 36.9167 34.4997 36.9167 34.4997 36.9167C31.833 36.6667 29.2497 35.75 26.9997 34.25C24.9163 32.9167 23.1663 31.1667 21.833 29.0833C20.4163 26.8333 19.4997 24.25 19.1663 21.5833C19.083 20.9167 19.2497 20.3333 19.6663 19.8333C20.083 19.3333 20.583 19.0833 21.2497 19C21.333 19 21.4163 19 21.4163 19H23.9163C25.083 19 25.9997 19.8333 26.1663 21C26.2497 21.75 26.4163 22.5 26.7497 23.25C27.083 24.0833 26.833 25 26.2497 25.6667L25.4997 26.3333C26.4997 28 27.9163 29.4167 29.583 30.4167L30.333 29.6667C30.9997 29 31.9163 28.8333 32.7497 29.1667C33.4997 29.4167 34.1663 29.5833 34.9163 29.75C36.083 29.9167 36.9163 30.9167 36.9163 32.0833V34.5833C36.9163 35.1667 36.6663 35.75 36.2497 36.1667C35.833 36.6667 35.2497 36.9167 34.6663 36.9167ZM23.9163 20.3333H21.333C21.083 20.3333 20.833 20.5 20.6663 20.6667C20.4163 20.9167 20.333 21.1667 20.4163 21.4167C20.6663 23.8333 21.4997 26.25 22.9163 28.3333C24.1663 30.25 25.833 31.9167 27.7497 33.1667C29.833 34.5 32.2497 35.3333 34.6663 35.6667H34.7497C34.9997 35.6667 35.333 35.5833 35.4997 35.3333C35.6663 35.1667 35.833 34.8333 35.833 34.5833V32.0833C35.833 31.5833 35.4997 31.0833 34.9163 31C34.083 30.9167 33.2497 30.6667 32.4163 30.4167C31.9997 30.25 31.583 30.3333 31.333 30.6667L30.2497 31.75C30.083 31.9167 29.7497 32 29.4997 31.8333C27.333 30.5833 25.4997 28.75 24.2497 26.5833C24.083 26.3333 24.083 26 24.333 25.8333L25.4163 24.75C25.6663 24.5 25.7497 24 25.6663 23.6667C25.333 22.8333 25.1663 22 25.083 21.1667C24.9163 20.6667 24.4163 20.3333 23.9163 20.3333Z" fill="#FCFCFC"/>
</svg>