<svg xmlns="http://www.w3.org/2000/svg" width="101" height="129" viewBox="0 0 101 129" fill="none">
<path fill-rule="evenodd" clip-rule="evenodd" d="M68.3645 34.9453C69.0243 34.9453 69.5591 35.4802 69.5591 36.1399V46.618L75.0319 50.5271C75.5688 50.9106 75.6932 51.6567 75.3097 52.1935C74.9262 52.7304 74.1801 52.8548 73.6432 52.4713L67.1699 47.8475V36.1399C67.1699 35.4802 67.7048 34.9453 68.3645 34.9453Z" fill="url(#paint0_linear_86986_169720)"/>
<path fill-rule="evenodd" clip-rule="evenodd" d="M68.7538 31.6978C60.4597 31.6978 53.7359 38.4216 53.7359 46.7158C53.7359 55.0099 60.4597 61.7337 68.7538 61.7337C77.048 61.7337 83.7718 55.0099 83.7718 46.7158C83.7718 38.4216 77.048 31.6978 68.7538 31.6978ZM51.3467 46.7158C51.3467 37.102 59.1401 29.3086 68.7538 29.3086C78.3676 29.3086 86.161 37.102 86.161 46.7158C86.161 56.3295 78.3676 64.1229 68.7538 64.1229C59.1401 64.1229 51.3467 56.3295 51.3467 46.7158Z" fill="url(#paint1_linear_86986_169720)"/>
<path fill-rule="evenodd" clip-rule="evenodd" d="M19.4111 15.6641C19.4111 15.0039 19.9463 14.4688 20.6065 14.4688H65.0041C65.6643 14.4688 66.1995 15.0039 66.1995 15.6641C66.1995 16.3242 65.6643 16.8594 65.0041 16.8594H20.6065C19.9463 16.8594 19.4111 16.3242 19.4111 15.6641Z" fill="url(#paint2_linear_86986_169720)"/>
<path fill-rule="evenodd" clip-rule="evenodd" d="M22.8213 29.2923C22.8213 28.6325 23.3561 28.0977 24.0159 28.0977H56.441C57.1008 28.0977 57.6356 28.6325 57.6356 29.2923C57.6356 29.952 57.1008 30.4869 56.441 30.4869H24.0159C23.3561 30.4869 22.8213 29.952 22.8213 29.2923Z" fill="url(#paint3_linear_86986_169720)"/>
<path fill-rule="evenodd" clip-rule="evenodd" d="M22.8213 39.5579C22.8213 38.8981 23.3561 38.3633 24.0159 38.3633H47.9081C48.5679 38.3633 49.1027 38.8981 49.1027 39.5579C49.1027 40.2177 48.5679 40.7525 47.9081 40.7525H24.0159C23.3561 40.7525 22.8213 40.2177 22.8213 39.5579Z" fill="url(#paint4_linear_86986_169720)"/>
<path fill-rule="evenodd" clip-rule="evenodd" d="M30.8567 21.2969C31.5165 21.2969 32.0513 21.8317 32.0513 22.4915V46.3837C32.0513 47.0434 31.5165 47.5783 30.8567 47.5783C30.197 47.5783 29.6621 47.0434 29.6621 46.3837V22.4915C29.6621 21.8317 30.197 21.2969 30.8567 21.2969Z" fill="url(#paint5_linear_86986_169720)"/>
<path fill-rule="evenodd" clip-rule="evenodd" d="M42.7981 21.2969C43.4579 21.2969 43.9927 21.8317 43.9927 22.4915V46.3837C43.9927 47.0434 43.4579 47.5783 42.7981 47.5783C42.1384 47.5783 41.6035 47.0434 41.6035 46.3837V22.4915C41.6035 21.8317 42.1384 21.2969 42.7981 21.2969Z" fill="url(#paint6_linear_86986_169720)"/>
<path fill-rule="evenodd" clip-rule="evenodd" d="M51.3499 21.2969C52.0096 21.2969 52.5445 21.8317 52.5445 22.4915V32.731C52.5445 33.3908 52.0096 33.9256 51.3499 33.9256C50.6901 33.9256 50.1553 33.3908 50.1553 32.731V22.4915C50.1553 21.8317 50.6901 21.2969 51.3499 21.2969Z" fill="url(#paint7_linear_86986_169720)"/>
<path fill-rule="evenodd" clip-rule="evenodd" d="M33.0713 5.41727C33.0713 4.7575 33.6061 4.22266 34.2659 4.22266H41.0922C41.752 4.22266 42.2868 4.7575 42.2868 5.41727C42.2868 6.07703 41.752 6.61188 41.0922 6.61188H34.2659C33.6061 6.61188 33.0713 6.07703 33.0713 5.41727Z" fill="url(#paint8_linear_86986_169720)"/>
<path fill-rule="evenodd" clip-rule="evenodd" d="M46.7178 5.41727C46.7178 4.7575 47.2526 4.22266 47.9124 4.22266H54.7387C55.3985 4.22266 55.9333 4.7575 55.9333 5.41727C55.9333 6.07703 55.3985 6.61188 54.7387 6.61188H47.9124C47.2526 6.61188 46.7178 6.07703 46.7178 5.41727Z" fill="url(#paint9_linear_86986_169720)"/>
<path fill-rule="evenodd" clip-rule="evenodd" d="M41.093 0.8125C41.7528 0.8125 42.2877 1.34735 42.2877 2.00711V8.83345C42.2877 9.49322 41.7528 10.0281 41.093 10.0281C40.4333 10.0281 39.8984 9.49322 39.8984 8.83345V2.00711C39.8984 1.34735 40.4333 0.8125 41.093 0.8125Z" fill="url(#paint10_linear_86986_169720)"/>
<path fill-rule="evenodd" clip-rule="evenodd" d="M54.7464 0.8125C55.4061 0.8125 55.941 1.34735 55.941 2.00711V8.83345C55.941 9.49322 55.4061 10.0281 54.7464 10.0281C54.0866 10.0281 53.5518 9.49322 53.5518 8.83345V2.00711C53.5518 1.34735 54.0866 0.8125 54.7464 0.8125Z" fill="url(#paint11_linear_86986_169720)"/>
<path fill-rule="evenodd" clip-rule="evenodd" d="M25.721 0.8125C26.3807 0.8125 26.9156 1.34735 26.9156 2.00711V8.83345C26.9156 9.49322 26.3807 10.0281 25.721 10.0281C25.0612 10.0281 24.5264 9.49322 24.5264 8.83345V2.00711C24.5264 1.34735 25.0612 0.8125 25.721 0.8125Z" fill="url(#paint12_linear_86986_169720)"/>
<path fill-rule="evenodd" clip-rule="evenodd" d="M21.0387 4.32031H25.7114V6.71052H21.0387C18.87 6.71052 17.1119 8.46859 17.1119 10.6373V48.1977C17.1119 50.3664 18.87 52.1244 21.0387 52.1244H53.7843C54.0455 52.9518 54.3713 53.7505 54.7558 54.5146H21.0387C17.5499 54.5146 14.7217 51.6864 14.7217 48.1977V10.6373C14.7217 7.14852 17.5499 4.32031 21.0387 4.32031ZM71.7452 31.216V10.6373C71.7452 7.14852 68.917 4.32031 65.4282 4.32031H59.8431V6.71052H65.4282C67.5969 6.71052 69.355 8.46859 69.355 10.6373V31.0251C70.1673 31.0304 70.9654 31.0954 71.7452 31.216Z" fill="url(#paint13_linear_86986_169720)"/>
<path d="M23.0104 93.021C23.0104 93.6886 22.8487 94.2689 22.5251 94.7619C22.2016 95.2549 21.7291 95.6349 21.1078 95.9019C20.4915 96.169 19.7418 96.3025 18.8585 96.3025C18.4682 96.3025 18.0856 96.2768 17.7107 96.2255C17.341 96.1741 16.9841 96.0997 16.64 96.0021C16.3011 95.8994 15.9775 95.7736 15.6694 95.6246V93.4061C16.2035 93.6424 16.7581 93.8555 17.3333 94.0455C17.9084 94.2355 18.4785 94.3305 19.0434 94.3305C19.4336 94.3305 19.7469 94.2792 19.9831 94.1765C20.2245 94.0737 20.3991 93.9325 20.5069 93.7528C20.6148 93.573 20.6687 93.3676 20.6687 93.1365C20.6687 92.8541 20.5737 92.6127 20.3837 92.4125C20.1937 92.2122 19.9318 92.0247 19.598 91.8501C19.2693 91.6755 18.897 91.4881 18.481 91.2878C18.2191 91.1646 17.9341 91.0156 17.626 90.841C17.3179 90.6613 17.0251 90.443 16.7478 90.1863C16.4705 89.9295 16.242 89.6188 16.0623 89.2542C15.8877 88.8845 15.8004 88.4428 15.8004 87.9293C15.8004 87.2565 15.9544 86.6814 16.2625 86.2038C16.5707 85.7262 17.0097 85.3616 17.5798 85.11C18.1549 84.8532 18.8328 84.7248 19.6134 84.7248C20.1988 84.7248 20.756 84.7941 21.2849 84.9328C21.819 85.0663 22.3762 85.2614 22.9565 85.5182L22.1862 87.3747C21.6675 87.1641 21.2028 87.0023 20.7919 86.8894C20.3811 86.7712 19.9626 86.7122 19.5363 86.7122C19.2385 86.7122 18.9843 86.761 18.7737 86.8586C18.5632 86.951 18.404 87.0845 18.2962 87.2591C18.1883 87.4286 18.1344 87.6263 18.1344 87.8522C18.1344 88.1193 18.2114 88.3452 18.3655 88.5301C18.5247 88.7099 18.7609 88.8845 19.0742 89.0539C19.3926 89.2234 19.788 89.4211 20.2604 89.6471C20.8356 89.9192 21.326 90.2042 21.7317 90.5021C22.1425 90.7948 22.4584 91.1415 22.6792 91.542C22.9 91.9374 23.0104 92.4304 23.0104 93.021ZM28.3641 96.3025C27.5116 96.3025 26.7849 96.1484 26.1841 95.8403C25.5832 95.5271 25.1262 95.0443 24.8129 94.3921C24.4997 93.7399 24.3431 92.9055 24.3431 91.8886C24.3431 90.8359 24.5202 89.9783 24.8746 89.3158C25.234 88.6482 25.7296 88.1578 26.3613 87.8445C26.998 87.5313 27.735 87.3747 28.572 87.3747C29.1677 87.3747 29.6813 87.4337 30.1126 87.5518C30.5492 87.6648 30.9292 87.8009 31.2527 87.9601L30.5594 89.778C30.1897 89.6291 29.8456 89.5084 29.5272 89.416C29.2088 89.3184 28.8904 89.2696 28.572 89.2696C28.1612 89.2696 27.8197 89.3672 27.5475 89.5623C27.2754 89.7523 27.0725 90.0399 26.939 90.4251C26.8055 90.8102 26.7387 91.2929 26.7387 91.8732C26.7387 92.4433 26.8106 92.9157 26.9544 93.2906C27.0982 93.6655 27.3062 93.9454 27.5783 94.1302C27.8505 94.31 28.1817 94.3998 28.572 94.3998C29.0599 94.3998 29.4938 94.3357 29.8738 94.2073C30.2539 94.0737 30.6236 93.8889 30.9831 93.6526V95.6631C30.6236 95.8891 30.2462 96.0509 29.8507 96.1484C29.4605 96.2511 28.9649 96.3025 28.3641 96.3025ZM35.3353 84.1625V86.6043C35.3353 87.0306 35.3199 87.4363 35.2891 87.8214C35.2634 88.2066 35.2429 88.4788 35.2275 88.638H35.3507C35.5356 88.3401 35.7538 88.0987 36.0055 87.9139C36.2623 87.729 36.5447 87.5929 36.8528 87.5056C37.1609 87.4183 37.4922 87.3747 37.8465 87.3747C38.4679 87.3747 39.0097 87.4851 39.4719 87.7059C39.934 87.9216 40.2935 88.2631 40.5503 88.7304C40.8071 89.1926 40.9354 89.7934 40.9354 90.5329V96.1484H38.586V91.1183C38.586 90.5021 38.473 90.0373 38.2471 89.7241C38.0211 89.4108 37.6719 89.2542 37.1995 89.2542C36.727 89.2542 36.3547 89.3646 36.0825 89.5854C35.8103 89.8011 35.6178 90.1221 35.5048 90.5483C35.3918 90.9694 35.3353 91.4855 35.3353 92.0966V96.1484H32.9859V84.1625H35.3353ZM46.9053 87.3747C47.7013 87.3747 48.3869 87.5287 48.962 87.8368C49.5372 88.1398 49.9814 88.5815 50.2947 89.1618C50.6079 89.7421 50.7645 90.4507 50.7645 91.2878V92.4279H45.2106C45.2363 93.0903 45.434 93.6116 45.8038 93.9916C46.1787 94.3665 46.6973 94.5539 47.3598 94.5539C47.9093 94.5539 48.4125 94.4974 48.8696 94.3844C49.3266 94.2715 49.7965 94.102 50.2792 93.876V95.694C49.853 95.9045 49.4062 96.0586 48.9389 96.1561C48.4767 96.2537 47.9144 96.3025 47.2519 96.3025C46.3892 96.3025 45.624 96.1433 44.9564 95.8249C44.294 95.5065 43.7727 95.0212 43.3927 94.369C43.0178 93.7168 42.8304 92.8952 42.8304 91.9041C42.8304 90.8975 42.9999 90.0605 43.3388 89.3929C43.6829 88.7201 44.1605 88.2169 44.7716 87.8831C45.3827 87.5441 46.0939 87.3747 46.9053 87.3747ZM46.9207 89.0462C46.4637 89.0462 46.0837 89.1926 45.7807 89.4853C45.4828 89.778 45.3108 90.2376 45.2646 90.8641H48.5615C48.5563 90.5149 48.4921 90.2042 48.3689 89.9321C48.2508 89.6599 48.071 89.4442 47.8297 89.285C47.5935 89.1258 47.2905 89.0462 46.9207 89.0462ZM55.4018 96.3025C54.4415 96.3025 53.6583 95.9276 53.0523 95.1779C52.4515 94.423 52.1511 93.3163 52.1511 91.8578C52.1511 90.384 52.4566 89.2696 53.0678 88.5147C53.6789 87.7547 54.4774 87.3747 55.4634 87.3747C55.8742 87.3747 56.2363 87.4311 56.5495 87.5441C56.8628 87.6571 57.1324 87.8086 57.3584 87.9986C57.5894 88.1886 57.7846 88.4017 57.9438 88.638H58.0208C57.99 88.4736 57.9515 88.2323 57.9053 87.9139C57.8642 87.5903 57.8437 87.2591 57.8437 86.9202V84.1625H60.2008V96.1484H58.3983L57.9438 95.0315H57.8437C57.6947 95.2677 57.5073 95.4834 57.2813 95.6786C57.0605 95.8686 56.796 96.0201 56.4879 96.133C56.1798 96.246 55.8177 96.3025 55.4018 96.3025ZM56.226 94.4307C56.8679 94.4307 57.3198 94.2406 57.5817 93.8606C57.8488 93.4755 57.99 92.8977 58.0054 92.1274V91.8732C58.0054 91.0362 57.877 90.3968 57.6203 89.9552C57.3635 89.5084 56.8859 89.285 56.1875 89.285C55.6688 89.285 55.2631 89.5084 54.9704 89.9552C54.6777 90.402 54.5313 91.0464 54.5313 91.8886C54.5313 92.7308 54.6777 93.3651 54.9704 93.7913C55.2683 94.2175 55.6868 94.4307 56.226 94.4307ZM70.5614 87.5364V96.1484H68.7589L68.4431 95.0469H68.3198C68.1349 95.3396 67.9038 95.5784 67.6265 95.7633C67.3492 95.9482 67.0437 96.0842 66.7099 96.1715C66.3761 96.2588 66.0294 96.3025 65.67 96.3025C65.0537 96.3025 64.5171 96.1947 64.06 95.979C63.603 95.7581 63.2461 95.4166 62.9893 94.9545C62.7377 94.4923 62.6118 93.8914 62.6118 93.1519V87.5364H64.9613V92.5665C64.9613 93.1828 65.0717 93.6475 65.2925 93.9608C65.5133 94.274 65.8651 94.4307 66.3478 94.4307C66.8254 94.4307 67.2003 94.3228 67.4725 94.1071C67.7446 93.8863 67.9347 93.5653 68.0425 93.1442C68.1555 92.718 68.212 92.1993 68.212 91.5882V87.5364H70.5614ZM75.3758 96.1484H73.0264V84.1625H75.3758V96.1484ZM81.3996 87.3747C82.1956 87.3747 82.8812 87.5287 83.4563 87.8368C84.0315 88.1398 84.4757 88.5815 84.7889 89.1618C85.1022 89.7421 85.2588 90.4507 85.2588 91.2878V92.4279H79.7049C79.7306 93.0903 79.9283 93.6116 80.2981 93.9916C80.6729 94.3665 81.1916 94.5539 81.8541 94.5539C82.4036 94.5539 82.9068 94.4974 83.3639 94.3844C83.8209 94.2715 84.2908 94.102 84.7735 93.876V95.694C84.3473 95.9045 83.9005 96.0586 83.4332 96.1561C82.971 96.2537 82.4087 96.3025 81.7462 96.3025C80.8835 96.3025 80.1183 96.1433 79.4507 95.8249C78.7883 95.5065 78.267 95.0212 77.887 94.369C77.5121 93.7168 77.3247 92.8952 77.3247 91.9041C77.3247 90.8975 77.4941 90.0605 77.8331 89.3929C78.1772 88.7201 78.6547 88.2169 79.2658 87.8831C79.877 87.5441 80.5882 87.3747 81.3996 87.3747ZM81.415 89.0462C80.958 89.0462 80.5779 89.1926 80.2749 89.4853C79.9771 89.778 79.8051 90.2376 79.7588 90.8641H83.0558C83.0506 90.5149 82.9864 90.2042 82.8632 89.9321C82.7451 89.6599 82.5653 89.4442 82.324 89.285C82.0877 89.1258 81.7847 89.0462 81.415 89.0462ZM13.1043 115.41C13.1043 116.678 12.8604 117.739 12.3725 118.591C11.8898 119.438 11.1888 120.078 10.2696 120.509C9.35034 120.935 8.24366 121.148 6.94955 121.148H3.76048V109.887H7.29619C8.47732 109.887 9.50183 110.097 10.3697 110.518C11.2376 110.934 11.9103 111.553 12.3879 112.375C12.8655 113.191 13.1043 114.203 13.1043 115.41ZM10.6239 115.471C10.6239 114.639 10.5007 113.956 10.2542 113.422C10.0128 112.883 9.65332 112.485 9.17573 112.228C8.70328 111.972 8.11785 111.843 7.41944 111.843H6.14843V119.176H7.17294C8.33867 119.176 9.20398 118.866 9.76887 118.244C10.3389 117.623 10.6239 116.699 10.6239 115.471ZM18.7814 112.359C19.9369 112.359 20.8228 112.611 21.439 113.114C22.0552 113.617 22.3634 114.383 22.3634 115.41V121.148H20.7226L20.2681 119.978H20.2065C19.96 120.286 19.7084 120.537 19.4516 120.732C19.1948 120.928 18.8996 121.071 18.5658 121.164C18.232 121.256 17.8263 121.302 17.3487 121.302C16.8403 121.302 16.3832 121.205 15.9775 121.01C15.577 120.815 15.2611 120.517 15.0301 120.116C14.799 119.711 14.6834 119.197 14.6834 118.576C14.6834 117.662 15.0044 116.989 15.6463 116.557C16.2882 116.121 17.2511 115.88 18.5349 115.833L20.0293 115.787V115.41C20.0293 114.958 19.9112 114.627 19.675 114.416C19.4388 114.205 19.1101 114.1 18.689 114.1C18.273 114.1 17.8648 114.159 17.4642 114.277C17.0637 114.395 16.6631 114.544 16.2625 114.724L15.4845 113.137C15.9416 112.896 16.4526 112.706 17.0174 112.567C17.5875 112.429 18.1755 112.359 18.7814 112.359ZM20.0293 117.158L19.1204 117.189C18.3603 117.21 17.8314 117.346 17.5336 117.597C17.2408 117.849 17.0945 118.18 17.0945 118.591C17.0945 118.95 17.1998 119.207 17.4103 119.361C17.6209 119.51 17.8956 119.585 18.2345 119.585C18.7378 119.585 19.1615 119.436 19.5055 119.138C19.8547 118.84 20.0293 118.416 20.0293 117.867V117.158ZM28.418 119.431C28.6747 119.431 28.9238 119.405 29.1652 119.354C29.4117 119.302 29.6556 119.238 29.897 119.161V120.91C29.6453 121.023 29.3321 121.115 28.9572 121.187C28.5874 121.264 28.1817 121.302 27.7401 121.302C27.2266 121.302 26.7644 121.22 26.3536 121.056C25.9479 120.887 25.6269 120.596 25.3907 120.186C25.1596 119.77 25.044 119.192 25.044 118.452V114.3H23.9194V113.307L25.2135 112.521L25.8914 110.703H27.3935V112.536H29.8045V114.3H27.3935V118.452C27.3935 118.781 27.4859 119.028 27.6708 119.192C27.8608 119.351 28.1098 119.431 28.418 119.431ZM35.1967 112.375C35.9926 112.375 36.6782 112.529 37.2534 112.837C37.8285 113.14 38.2727 113.581 38.586 114.162C38.8993 114.742 39.0559 115.451 39.0559 116.288V117.428H33.502C33.5277 118.09 33.7254 118.612 34.0951 118.992C34.47 119.366 34.9887 119.554 35.6511 119.554C36.2006 119.554 36.7039 119.497 37.1609 119.384C37.618 119.271 38.0879 119.102 38.5706 118.876V120.694C38.1444 120.905 37.6976 121.059 37.2303 121.156C36.7681 121.254 36.2058 121.302 35.5433 121.302C34.6806 121.302 33.9154 121.143 33.2478 120.825C32.5853 120.507 32.0641 120.021 31.6841 119.369C31.3092 118.717 31.1217 117.895 31.1217 116.904C31.1217 115.898 31.2912 115.06 31.6301 114.393C31.9742 113.72 32.4518 113.217 33.0629 112.883C33.674 112.544 34.3853 112.375 35.1967 112.375ZM35.2121 114.046C34.755 114.046 34.375 114.193 34.072 114.485C33.7742 114.778 33.6021 115.238 33.5559 115.864H36.8528C36.8477 115.515 36.7835 115.204 36.6602 114.932C36.5421 114.66 36.3624 114.444 36.121 114.285C35.8848 114.126 35.5818 114.046 35.2121 114.046ZM48.7232 109.725C49.3292 109.725 49.8684 109.82 50.3409 110.01C50.8133 110.2 51.1856 110.477 51.4578 110.842C51.7351 111.206 51.8738 111.651 51.8738 112.174C51.8738 112.898 51.6581 113.507 51.2267 114C50.8005 114.493 50.2664 114.924 49.6245 115.294L51.8122 117.428C52.0278 117.074 52.2101 116.699 52.3591 116.303C52.5131 115.908 52.6467 115.51 52.7596 115.109H55.2092C55.05 115.7 54.8164 116.331 54.5082 117.004C54.2052 117.672 53.8175 118.301 53.3451 118.891L55.6637 121.148H52.7596L51.8738 120.278C51.5708 120.489 51.2447 120.671 50.8955 120.825C50.5514 120.979 50.1817 121.097 49.7863 121.179C49.396 121.261 48.9826 121.302 48.5461 121.302C47.6936 121.302 46.9618 121.169 46.3507 120.902C45.7396 120.635 45.2723 120.263 44.9487 119.785C44.6252 119.302 44.4634 118.743 44.4634 118.106C44.4634 117.572 44.5456 117.115 44.7099 116.735C44.8743 116.349 45.1105 116.013 45.4186 115.725C45.7267 115.433 46.0965 115.163 46.5279 114.917C46.2557 114.598 46.0374 114.3 45.8731 114.023C45.7139 113.746 45.5984 113.471 45.5265 113.199C45.4597 112.922 45.4263 112.631 45.4263 112.328C45.4263 111.794 45.565 111.335 45.8423 110.95C46.1247 110.559 46.5125 110.259 47.0055 110.048C47.5036 109.833 48.0762 109.725 48.7232 109.725ZM47.899 116.319C47.7039 116.468 47.5318 116.622 47.3829 116.781C47.2391 116.94 47.1287 117.109 47.0517 117.289C46.9746 117.469 46.9361 117.667 46.9361 117.882C46.9361 118.334 47.1056 118.689 47.4445 118.945C47.7835 119.202 48.2046 119.331 48.7078 119.331C49.0468 119.331 49.3626 119.289 49.6553 119.207C49.948 119.125 50.2151 119.01 50.4564 118.861L47.899 116.319ZM48.7078 111.543C48.4459 111.543 48.1943 111.609 47.9529 111.743C47.7167 111.877 47.5986 112.126 47.5986 112.49C47.5986 112.747 47.6653 112.999 47.7989 113.245C47.9324 113.486 48.1096 113.733 48.3304 113.985C48.772 113.743 49.111 113.502 49.3472 113.261C49.5834 113.014 49.7015 112.734 49.7015 112.421C49.7015 112.108 49.5937 111.884 49.378 111.751C49.1674 111.612 48.9441 111.543 48.7078 111.543ZM65.5236 121.148H63.1357V111.874H60.0775V109.887H68.5817V111.874H65.5236V121.148ZM72.4795 112.536V121.148H70.13V112.536H72.4795ZM71.3086 109.162C71.6578 109.162 71.9582 109.245 72.2099 109.409C72.4615 109.568 72.5873 109.869 72.5873 110.31C72.5873 110.747 72.4615 111.05 72.2099 111.219C71.9582 111.384 71.6578 111.466 71.3086 111.466C70.9543 111.466 70.6513 111.384 70.3996 111.219C70.1531 111.05 70.0299 110.747 70.0299 110.31C70.0299 109.869 70.1531 109.568 70.3996 109.409C70.6513 109.245 70.9543 109.162 71.3086 109.162ZM85.0663 112.375C86.042 112.375 86.7789 112.626 87.277 113.13C87.7803 113.628 88.0319 114.429 88.0319 115.533V121.148H85.6748V116.118C85.6748 115.502 85.5695 115.037 85.359 114.724C85.1484 114.411 84.8223 114.254 84.3807 114.254C83.7593 114.254 83.3177 114.478 83.0558 114.924C82.7939 115.366 82.6629 116 82.6629 116.827V121.148H80.3135V116.118C80.3135 115.708 80.2672 115.363 80.1748 115.086C80.0824 114.809 79.9412 114.601 79.7511 114.462C79.5611 114.324 79.3172 114.254 79.0194 114.254C78.5828 114.254 78.2388 114.365 77.9871 114.585C77.7406 114.801 77.5635 115.122 77.4556 115.548C77.3529 115.969 77.3016 116.486 77.3016 117.097V121.148H74.9521V112.536H76.747L77.0628 113.638H77.1937C77.3683 113.34 77.5866 113.099 77.8485 112.914C78.1155 112.729 78.4082 112.593 78.7266 112.506C79.045 112.418 79.3686 112.375 79.6972 112.375C80.3289 112.375 80.863 112.477 81.2995 112.683C81.7411 112.888 82.08 113.207 82.3163 113.638H82.5242C82.781 113.196 83.1431 112.875 83.6104 112.675C84.0828 112.475 84.5681 112.375 85.0663 112.375ZM94.0018 112.375C94.7978 112.375 95.4834 112.529 96.0585 112.837C96.6337 113.14 97.0779 113.581 97.3911 114.162C97.7044 114.742 97.861 115.451 97.861 116.288V117.428H92.3071C92.3328 118.09 92.5305 118.612 92.9003 118.992C93.2751 119.366 93.7938 119.554 94.4563 119.554C95.0058 119.554 95.509 119.497 95.9661 119.384C96.4231 119.271 96.893 119.102 97.3757 118.876V120.694C96.9495 120.905 96.5027 121.059 96.0354 121.156C95.5732 121.254 95.0109 121.302 94.3484 121.302C93.4857 121.302 92.7205 121.143 92.0529 120.825C91.3905 120.507 90.8692 120.021 90.4892 119.369C90.1143 118.717 89.9269 117.895 89.9269 116.904C89.9269 115.898 90.0963 115.06 90.4353 114.393C90.7794 113.72 91.2569 113.217 91.8681 112.883C92.4792 112.544 93.1904 112.375 94.0018 112.375ZM94.0172 114.046C93.5602 114.046 93.1801 114.193 92.8772 114.485C92.5793 114.778 92.4073 115.238 92.361 115.864H95.658C95.6528 115.515 95.5886 115.204 95.4654 114.932C95.3473 114.66 95.1675 114.444 94.9262 114.285C94.6899 114.126 94.387 114.046 94.0172 114.046Z" fill="#14142B"/>
<defs>
<linearGradient id="paint0_linear_86986_169720" x1="67.2459" y1="51.158" x2="76.4142" y2="50.3778" gradientUnits="userSpaceOnUse">
<stop stop-color="#0060EF"/>
<stop offset="0.505208" stop-color="#150190"/>
<stop offset="1" stop-color="#8601F0"/>
</linearGradient>
<linearGradient id="paint1_linear_86986_169720" x1="51.6632" y1="61.1102" x2="88.8944" y2="54.3855" gradientUnits="userSpaceOnUse">
<stop stop-color="#0060EF"/>
<stop offset="0.505208" stop-color="#150190"/>
<stop offset="1" stop-color="#8601F0"/>
</linearGradient>
<linearGradient id="paint2_linear_86986_169720" x1="19.8365" y1="16.6525" x2="23.665" y2="3.11897" gradientUnits="userSpaceOnUse">
<stop stop-color="#0060EF"/>
<stop offset="0.505208" stop-color="#150190"/>
<stop offset="1" stop-color="#8601F0"/>
</linearGradient>
<linearGradient id="paint3_linear_86986_169720" x1="23.1378" y1="30.2801" x2="27.988" y2="17.5151" gradientUnits="userSpaceOnUse">
<stop stop-color="#0060EF"/>
<stop offset="0.505208" stop-color="#150190"/>
<stop offset="1" stop-color="#8601F0"/>
</linearGradient>
<linearGradient id="paint4_linear_86986_169720" x1="23.0602" y1="40.5457" x2="28.9266" y2="28.8905" gradientUnits="userSpaceOnUse">
<stop stop-color="#0060EF"/>
<stop offset="0.505208" stop-color="#150190"/>
<stop offset="1" stop-color="#8601F0"/>
</linearGradient>
<linearGradient id="paint5_linear_86986_169720" x1="29.6838" y1="45.3039" x2="32.3216" y2="45.2606" gradientUnits="userSpaceOnUse">
<stop stop-color="#0060EF"/>
<stop offset="0.505208" stop-color="#150190"/>
<stop offset="1" stop-color="#8601F0"/>
</linearGradient>
<linearGradient id="paint6_linear_86986_169720" x1="41.6252" y1="45.3039" x2="44.263" y2="45.2606" gradientUnits="userSpaceOnUse">
<stop stop-color="#0060EF"/>
<stop offset="0.505208" stop-color="#150190"/>
<stop offset="1" stop-color="#8601F0"/>
</linearGradient>
<linearGradient id="paint7_linear_86986_169720" x1="50.177" y1="32.8327" x2="52.8124" y2="32.7427" gradientUnits="userSpaceOnUse">
<stop stop-color="#0060EF"/>
<stop offset="0.505208" stop-color="#150190"/>
<stop offset="1" stop-color="#8601F0"/>
</linearGradient>
<linearGradient id="paint8_linear_86986_169720" x1="33.1551" y1="6.40512" x2="40.0066" y2="1.63191" gradientUnits="userSpaceOnUse">
<stop stop-color="#0060EF"/>
<stop offset="0.505208" stop-color="#150190"/>
<stop offset="1" stop-color="#8601F0"/>
</linearGradient>
<linearGradient id="paint9_linear_86986_169720" x1="46.8016" y1="6.40512" x2="53.653" y2="1.63191" gradientUnits="userSpaceOnUse">
<stop stop-color="#0060EF"/>
<stop offset="0.505208" stop-color="#150190"/>
<stop offset="1" stop-color="#8601F0"/>
</linearGradient>
<linearGradient id="paint10_linear_86986_169720" x1="39.9202" y1="9.23056" x2="42.5528" y2="9.10728" gradientUnits="userSpaceOnUse">
<stop stop-color="#0060EF"/>
<stop offset="0.505208" stop-color="#150190"/>
<stop offset="1" stop-color="#8601F0"/>
</linearGradient>
<linearGradient id="paint11_linear_86986_169720" x1="53.5735" y1="9.23056" x2="56.2061" y2="9.10728" gradientUnits="userSpaceOnUse">
<stop stop-color="#0060EF"/>
<stop offset="0.505208" stop-color="#150190"/>
<stop offset="1" stop-color="#8601F0"/>
</linearGradient>
<linearGradient id="paint12_linear_86986_169720" x1="24.5481" y1="9.23056" x2="27.1808" y2="9.10728" gradientUnits="userSpaceOnUse">
<stop stop-color="#0060EF"/>
<stop offset="0.505208" stop-color="#150190"/>
<stop offset="1" stop-color="#8601F0"/>
</linearGradient>
<linearGradient id="paint13_linear_86986_169720" x1="15.2401" y1="50.1709" x2="75.6674" y2="37.7717" gradientUnits="userSpaceOnUse">
<stop stop-color="#0060EF"/>
<stop offset="0.505208" stop-color="#150190"/>
<stop offset="1" stop-color="#8601F0"/>
</linearGradient>
</defs>
</svg>