<svg xmlns="http://www.w3.org/2000/svg" width="73" height="73" viewBox="0 0 73 73" fill="none">
<path fill-rule="evenodd" clip-rule="evenodd" d="M31.9458 55.9334C30.3917 55.9334 28.9232 54.7643 28.5667 53.1104C28.5525 53.0676 28.5525 53.0391 28.5525 52.9963C28.3529 51.0145 29.5933 49.3035 31.4896 48.9186C31.5167 48.9186 31.5466 48.9043 31.5751 48.9043C33.3431 48.7047 35.1096 50.0164 35.5103 51.8129C35.5245 51.8557 35.5245 51.8842 35.5245 51.927C35.6244 52.868 35.382 53.7947 34.8544 54.5219C34.2984 55.2775 33.4857 55.7623 32.5447 55.8621C32.3451 55.9191 32.1454 55.9334 31.9458 55.9334ZM70.171 63.5898H7.43666C6.8806 63.5898 6.43718 63.1479 6.43718 62.5918V58.1719C6.43718 57.6158 6.8806 57.1738 7.43666 57.1738H20.6964V55.5057L14.6511 50.5297C14.4372 50.3586 14.3089 50.1162 14.2932 49.8453C14.279 49.5744 14.3517 49.3178 14.5356 49.1039L20.253 42.417L27.8809 18.8346C29.0216 14.2863 31.2757 13.4451 34.8387 12.4471L45.3852 9.49428C45.5079 9.4401 45.6447 9.41016 45.7887 9.41016H55.0563C55.6124 9.41016 56.0544 9.85215 56.0544 10.4082V12.5469C56.0544 14.2436 54.6143 15.6836 52.9176 15.6836H47.9274C47.4954 15.6836 47.0805 15.5895 46.7012 15.4227L36.3928 14.101L36.3543 14.0953L35.3663 14.3719C32.0585 15.2986 30.6755 15.8119 29.7915 19.3621C29.7915 19.3906 29.7772 19.4049 29.7772 19.4334L22.078 43.2439C22.0352 43.3723 21.9782 43.4863 21.8927 43.5861L16.7042 49.6314L22.3361 54.2652C22.5642 54.4506 22.7068 54.7357 22.7068 55.0352V57.1738H27.5901C26.803 56.4182 26.2285 55.4757 25.9091 54.4164C25.5341 54.4463 25.1848 54.4648 24.8597 54.4648C23.8189 54.4648 23.0347 54.2795 22.4501 53.7662C21.5947 53.0248 21.4521 51.8699 21.2382 50.2588C21.1669 49.7455 21.0942 49.1609 20.9958 48.5051C20.6394 46.4662 22.0367 43.3865 24.1468 42.8162L33.7837 40.3068L41.1692 34.176C43.0655 32.6219 49.4102 31.6238 51.3065 31.3529C55.1989 30.8111 60.1321 30.4547 62.3421 31.1391C64.053 31.6381 65.7639 32.465 67.2895 33.1779C67.9596 33.4916 68.587 33.791 69.1145 34.0191C73.2778 35.5732 73.5487 40.9484 72.4223 45.4539C72.3368 45.8246 72.0374 46.0955 71.6809 46.1811L69.3683 46.7057C69.3726 49.9166 67.0785 52.7126 63.8962 53.1674C63.5682 53.2244 63.2546 53.2387 62.9409 53.2387C60.346 53.2387 58.0134 51.7216 56.9868 49.4461L38.4645 52.4459C38.4916 53.8019 38.0696 55.125 37.2355 56.2471C36.9831 56.5836 36.7022 56.8929 36.3957 57.1738H70.171C70.7271 57.1738 71.1691 57.6158 71.1691 58.1719V62.5918C71.1676 63.1479 70.7271 63.5898 70.171 63.5898ZM8.4347 61.5938H69.1716V59.1699H21.6945H8.4347V61.5938ZM44.7907 11.7328L41.2833 12.7151L44.8577 13.1728C44.8135 12.9703 44.7907 12.7607 44.7907 12.5469V11.7328ZM46.7868 11.4062V12.5469C46.7868 12.9176 47.0106 13.2754 47.3229 13.4893L47.7563 13.5449C47.9032 13.5635 48.0372 13.6134 48.1541 13.6875H52.9176C53.5022 13.6875 54.0583 13.1314 54.0583 12.5469V11.4062H46.7868ZM11.4288 54.3223C11.3433 54.3223 11.2577 54.308 11.1579 54.2795L5.45339 52.7111C5.08412 52.6113 4.79754 52.2977 4.72625 51.9127C4.65638 51.5277 4.82748 51.1428 5.15398 50.9289L10.1314 47.6211H3.15931C2.75867 47.6211 2.38939 47.3787 2.23256 47.008C2.07572 46.6373 2.16127 46.2096 2.44642 45.9244L6.18197 42.1889L0.279235 35.9012C-0.0344367 35.5732 -0.0772101 35.0742 0.150915 34.6893C0.393298 34.3043 0.849548 34.1332 1.27728 34.2473L13.3536 37.7832L10.6304 31.467C10.4593 31.0678 10.5591 30.6115 10.887 30.3264C11.215 30.0412 11.6712 29.9984 12.0419 30.2123L20.454 35.06C20.9245 35.3309 21.0956 35.9439 20.8247 36.4287C20.5538 36.8992 19.9408 37.0703 19.456 36.7994L13.6531 33.4488L16.0341 38.9523C16.191 39.3088 16.1197 39.7223 15.863 40.0074C15.6064 40.2926 15.2072 40.4066 14.8365 40.3068L4.24291 37.1986L8.29212 41.5188C8.6614 41.918 8.64857 42.5311 8.26361 42.9018L5.56888 45.625H13.4249C13.8669 45.625 14.2519 45.9102 14.3802 46.3379C14.5085 46.7656 14.3374 47.2076 13.981 47.4643L8.10535 51.3852L11.6983 52.3689C12.2273 52.5115 12.5395 53.0676 12.3984 53.5951C12.2701 54.0371 11.8708 54.3223 11.4288 54.3223ZM67.3409 46.1098C67.3337 46.0727 67.328 46.0371 67.3237 46.0014C66.9416 43.676 64.6205 42.0064 62.1995 42.3314C59.7186 42.8162 58.1075 45.0262 58.4639 47.4785C58.635 48.6477 59.2624 49.6742 60.2319 50.3728C61.2014 51.0715 62.4133 51.3709 63.611 51.1998C64.7801 51.0287 65.8067 50.4014 66.5053 49.4318C67.1926 48.478 67.4948 47.3046 67.3409 46.1126V46.1098ZM69.0532 44.7253L70.6258 44.3703C71.0108 42.474 71.7807 37.1273 68.4016 35.8727C68.3874 35.8727 68.3731 35.8584 68.3589 35.8584C67.7885 35.616 67.1184 35.3023 66.4341 34.9744C64.9798 34.29 63.3401 33.5059 61.7717 33.0496C60.2319 32.5791 56.1399 32.6932 51.5917 33.3348C46.4018 34.0619 43.2223 35.0885 42.4382 35.7158L34.8815 41.9893C34.7675 42.0891 34.6391 42.1461 34.4966 42.1889L24.6587 44.7553C23.7319 45.0119 22.7481 46.9937 22.962 48.1771V48.1914C23.076 48.8758 23.1473 49.4889 23.2186 50.0164C23.3612 51.1428 23.4753 52.0268 23.7462 52.2691C24.0228 52.5087 24.8711 52.503 25.5954 52.4516C25.5697 51.1171 25.9747 49.8139 26.7702 48.6904C27.7968 47.2646 29.3652 46.2951 31.1046 46.0527C32.8156 45.8104 34.5122 46.2238 35.8667 47.2361C36.9589 48.0531 37.7459 49.1766 38.1437 50.4798L56.4664 47.5127C56.2967 45.8888 56.7174 44.3019 57.6798 42.9873C58.6792 41.6186 60.1606 40.6918 61.8573 40.3639C61.8716 40.3639 61.8858 40.3639 61.9001 40.3496C65.0339 39.9019 68.0865 41.841 69.0532 44.7253ZM27.6542 53.1431L27.6585 53.1688C27.6614 53.1731 27.6642 53.1774 27.6685 53.1816C27.8396 54.365 28.4384 55.3916 29.3794 56.0902C30.3062 56.7746 31.4611 57.074 32.6445 56.9029C35.1966 56.4039 36.8363 54.1654 36.3928 51.7986C36.3928 51.7844 36.3928 51.7701 36.3786 51.7559C36.2089 50.5725 35.6101 49.5459 34.6691 48.8473C33.9277 48.2912 33.0009 47.9918 32.0599 47.9918C31.846 47.9918 31.6179 48.0061 31.3898 48.0346C30.1921 48.2057 29.1085 48.8758 28.3956 49.8596C27.7113 50.8291 27.4404 51.984 27.6542 53.1389V53.1431ZM46.3591 41.4902C46.0169 41.4902 45.6904 41.3049 45.5036 41.0055L43.2223 37.1559C43.0512 36.8707 43.037 36.5143 43.1796 36.2148C43.3221 35.9154 43.6073 35.7016 43.9352 35.6588L51.4919 34.5182L51.5047 34.5167L51.5161 34.5139H51.519L59.0485 33.3775C59.3764 33.3205 59.7186 33.4488 59.9325 33.6912C60.1606 33.9336 60.2462 34.29 60.1606 34.6037L59.02 39.0236C58.9202 39.4086 58.5923 39.708 58.193 39.765L52.3488 40.6205H52.3473C52.3202 40.6291 52.2875 40.6333 52.2561 40.6333L46.5031 41.476C46.4589 41.4902 46.4018 41.4902 46.3591 41.4902ZM45.6889 37.4125L46.8723 39.4086L51.0784 38.7955L50.779 36.6426L45.6889 37.4125ZM52.7608 36.3432L53.0602 38.5104L57.252 37.8973L57.8508 35.5875L52.7608 36.3432ZM48.07 43.9141C47.5852 43.9141 47.1717 43.5719 47.0862 43.0729C47.0007 42.5311 47.3585 42.0178 47.9146 41.918L49.6255 41.6328C50.1673 41.5473 50.6806 41.9037 50.7804 42.4598C50.866 43.0016 50.5095 43.5148 49.9534 43.6146L48.2411 43.8998C48.1841 43.9141 48.127 43.9141 48.07 43.9141ZM55.0563 42.916C54.5858 42.916 54.1581 42.5738 54.0725 42.1033C53.9727 41.5615 54.3292 41.0482 54.871 40.9484L56.4393 40.6633C56.9811 40.5635 57.4944 40.9199 57.5942 41.4617C57.694 42.0035 57.3376 42.5168 56.7958 42.6166L55.2274 42.9018C55.1704 42.916 55.1133 42.916 55.0563 42.916ZM63.0692 50.3443C61.2884 50.3443 59.7058 49.0469 59.4919 47.3502C59.3208 46.4234 59.5347 45.4539 60.0908 44.6982C60.6311 43.9568 61.4438 43.4721 62.3292 43.358C63.2702 43.1869 64.197 43.3865 64.9669 43.9568C65.7212 44.5129 66.2216 45.3826 66.32 46.3236C66.6779 48.0773 65.4218 49.8881 63.5554 50.3016C63.5126 50.3158 63.4841 50.3158 63.4413 50.3158C63.2973 50.3443 63.1833 50.3443 63.0692 50.3443ZM62.9551 45.2971C62.8553 45.2971 62.7698 45.3113 62.67 45.3256C62.6415 45.3256 62.613 45.3398 62.5844 45.3398C62.2423 45.3826 61.9143 45.568 61.7005 45.8674C61.4595 46.1953 61.374 46.5945 61.4595 46.9938C61.4595 47.0223 61.4738 47.0508 61.4738 47.0793C61.5593 47.8207 62.3435 48.391 63.1704 48.334C63.9404 48.1344 64.4964 47.3645 64.3524 46.6801C64.3382 46.6373 64.3382 46.6088 64.3382 46.566C64.2954 46.1383 64.0958 45.7818 63.7678 45.5395C63.5255 45.3826 63.2546 45.2971 62.9551 45.2971ZM30.5201 52.7396C30.7182 53.5096 31.4896 54.0656 32.174 53.923C32.2167 53.9088 32.2438 53.9088 32.2866 53.9088C33.1848 53.8232 33.5983 52.9963 33.5427 52.2121C33.3431 51.4422 32.5589 50.8434 31.8318 50.9004C30.9906 51.0857 30.463 51.8271 30.5201 52.7396Z" fill="#0841D1"/>
</svg>