<svg xmlns="http://www.w3.org/2000/svg" width="73" height="73" viewBox="0 0 73 73" fill="none">
<path fill-rule="evenodd" clip-rule="evenodd" d="M21.9001 14.0875C19.4014 14.0875 17.1756 15.6575 16.2205 17.8861L16.2168 17.8949L16.2168 17.8949L13.2394 24.7428H48.5448L45.5879 17.9421C44.4151 15.6316 42.1478 14.0875 39.6796 14.0875H21.9001ZM12.8676 16.4437C14.366 12.9525 17.8611 10.4375 21.9001 10.4375H39.6796C43.7364 10.4375 47.1789 12.9622 48.8734 16.351C48.8879 16.3801 48.9017 16.4097 48.9147 16.4395L53.0019 25.8402C53.2472 26.4043 53.1918 27.0541 52.8545 27.5685C52.5172 28.0829 51.9434 28.3928 51.3283 28.3928H10.4559C9.84071 28.3928 9.26695 28.0829 8.92966 27.5685C8.59236 27.0541 8.53693 26.4043 8.78221 25.8402L12.8676 16.4437Z" fill="#FCFCFC"/>
<path fill-rule="evenodd" clip-rule="evenodd" d="M4.54297 47.0047C4.54297 45.9968 5.36005 45.1797 6.36797 45.1797H18.6297C19.6376 45.1797 20.4547 45.9968 20.4547 47.0047V51.0919C20.4547 54.3478 17.7983 57.0042 14.5424 57.0042H10.4552C7.19931 57.0042 4.54297 54.3478 4.54297 51.0919V47.0047ZM8.19297 48.8297V51.0919C8.19297 52.332 9.21515 53.3542 10.4552 53.3542H14.5424C15.7825 53.3542 16.8047 52.332 16.8047 51.0919V48.8297H8.19297Z" fill="#FCFCFC"/>
<path fill-rule="evenodd" clip-rule="evenodd" d="M2.5 24.5242C2.5 23.5163 3.31708 22.6992 4.325 22.6992H11.2733C12.2812 22.6992 13.0983 23.5163 13.0983 24.5242C13.0983 25.5321 12.2812 26.3492 11.2733 26.3492H4.325C3.31708 26.3492 2.5 25.5321 2.5 24.5242Z" fill="#FCFCFC"/>
<path fill-rule="evenodd" clip-rule="evenodd" d="M49.5029 24.5242C49.5029 23.5163 50.32 22.6992 51.3279 22.6992H57.4588C58.4667 22.6992 59.2838 23.5163 59.2838 24.5242C59.2838 25.5321 58.4667 26.3492 57.4588 26.3492H51.3279C50.32 26.3492 49.5029 25.5321 49.5029 24.5242Z" fill="#FCFCFC"/>
<path fill-rule="evenodd" clip-rule="evenodd" d="M8.63086 36.7859C8.63086 35.778 9.44794 34.9609 10.4559 34.9609H16.5867C17.5946 34.9609 18.4117 35.778 18.4117 36.7859C18.4117 37.7939 17.5946 38.6109 16.5867 38.6109H10.4559C9.44794 38.6109 8.63086 37.7939 8.63086 36.7859Z" fill="#FCFCFC"/>
<path fill-rule="evenodd" clip-rule="evenodd" d="M54.6069 39.8453C47.7142 39.8453 42.1266 45.433 42.1266 52.3256C42.1266 59.2183 47.7142 64.806 54.6069 64.806C61.4996 64.806 67.0872 59.2183 67.0872 52.3256C67.0872 45.433 61.4996 39.8453 54.6069 39.8453ZM38.4766 52.3256C38.4766 43.4171 45.6984 36.1953 54.6069 36.1953C63.5154 36.1953 70.7372 43.4171 70.7372 52.3256C70.7372 61.2342 63.5154 68.456 54.6069 68.456C45.6984 68.456 38.4766 61.2342 38.4766 52.3256Z" fill="#FCFCFC"/>
<path fill-rule="evenodd" clip-rule="evenodd" d="M22.091 40.2914C23.0537 38.1233 25.2035 37.0039 27.418 37.0039H34.5706C36.8076 37.0039 38.9787 38.1462 39.9266 40.358C40.3236 41.2844 39.8945 42.3573 38.968 42.7543C38.0416 43.1514 36.9687 42.7222 36.5717 41.7958C36.2934 41.1465 35.6034 40.6539 34.5706 40.6539H27.418C26.3852 40.6539 25.6951 41.1465 25.4169 41.7958C25.3995 41.8363 25.3807 41.8762 25.3604 41.9153L22.295 47.8418C21.8319 48.7371 20.7308 49.0874 19.8356 48.6244C18.9403 48.1613 18.59 47.0602 19.053 46.1649L22.091 40.2914Z" fill="#FCFCFC"/>
<path fill-rule="evenodd" clip-rule="evenodd" d="M12.4995 28.3922C9.01144 28.3922 6.15 31.2536 6.15 34.7417V42.9161C6.15 44.1562 7.17218 45.1784 8.41224 45.1784H37.0229C38.0308 45.1784 38.8479 45.9955 38.8479 47.0034C38.8479 48.0113 38.0308 48.8284 37.0229 48.8284H8.41224C5.15634 48.8284 2.5 46.172 2.5 42.9161V34.7417C2.5 29.2378 6.9956 24.7422 12.4995 24.7422H49.2846C54.5535 24.7422 58.7815 28.764 59.2759 33.9556C59.3715 34.9589 58.6355 35.8498 57.6321 35.9454C56.6288 36.0409 55.7379 35.305 55.6423 34.3016C55.3193 30.91 52.599 28.3922 49.2846 28.3922H12.4995Z" fill="#FCFCFC"/>
<path fill-rule="evenodd" clip-rule="evenodd" d="M53.9891 45.3203C54.997 45.3203 55.8141 46.1374 55.8141 47.1453V53.2957L60.5139 56.0993C61.3795 56.6157 61.6626 57.736 61.1462 58.6016C60.6298 59.4672 59.5095 59.7503 58.6439 59.234L53.0541 55.8993C52.5021 55.5701 52.1641 54.9747 52.1641 54.332V47.1453C52.1641 46.1374 52.9811 45.3203 53.9891 45.3203Z" fill="#FCFCFC"/>
</svg>