<svg xmlns="http://www.w3.org/2000/svg" width="73" height="73" viewBox="0 0 73 73" fill="none">
<path fill-rule="evenodd" clip-rule="evenodd" d="M26.4625 15.3984C23.5354 15.3984 20.9372 17.2357 19.8226 19.8365L19.8191 19.8447L16.297 27.9453H56.703L53.2 19.8885C51.8446 17.211 49.2075 15.3984 46.3094 15.3984H26.4625ZM59.4424 25.6641L56.319 18.4803C56.3069 18.4523 56.294 18.4246 56.2803 18.3973C54.436 14.7088 50.6972 11.9766 46.3094 11.9766H26.4625C22.0913 11.9766 18.3031 14.6998 16.6792 18.4843L13.5576 25.6641H6.84375C5.89883 25.6641 5.13281 26.4301 5.13281 27.375C5.13281 28.3199 5.89883 29.0859 6.84375 29.0859H11.1408C7.58565 30.8679 5.13281 34.5499 5.13281 38.7812V47.9062C5.13281 49.8465 6.02224 51.5863 7.41406 52.7388V57.0312C7.41406 60.4855 10.2332 63.3047 13.6875 63.3047H18.25C21.7043 63.3047 24.5234 60.4855 24.5234 57.0312V54.1797H48.4766V57.0312C48.4766 60.4855 51.2957 63.3047 54.75 63.3047H59.3125C62.7668 63.3047 65.5859 60.4855 65.5859 57.0312V52.7388C66.9778 51.5863 67.8672 49.8465 67.8672 47.9062V38.7812C67.8672 34.5499 65.4144 30.8679 61.8592 29.0859H66.1562C67.1012 29.0859 67.8672 28.3199 67.8672 27.375C67.8672 26.4301 67.1012 25.6641 66.1562 25.6641H59.4424ZM57.0312 31.3672H15.9688C11.8949 31.3672 8.55469 34.7074 8.55469 38.7812V47.9062C8.55469 49.4707 9.8418 50.7578 11.4062 50.7578H24.0198L26.7315 45.1409C27.7383 42.8365 30.0174 41.6328 32.3937 41.6328H40.3781C42.7464 41.6328 45.0181 42.8284 46.0301 45.1175L48.9475 50.7578H61.5938C63.1582 50.7578 64.4453 49.4707 64.4453 47.9062V38.7812C64.4453 34.7074 61.1051 31.3672 57.0312 31.3672ZM45.095 50.7578L42.9647 46.6392C42.9457 46.6025 42.9281 46.5651 42.9118 46.5271C42.5413 45.6627 41.6386 45.0547 40.3781 45.0547H32.3937C31.1332 45.0547 30.2306 45.6627 29.8601 46.5271C29.85 46.5506 29.8394 46.5739 29.8283 46.597L27.8196 50.7578H45.095ZM51.8984 54.1797V57.0312C51.8984 58.5957 53.1855 59.8828 54.75 59.8828H59.3125C60.877 59.8828 62.1641 58.5957 62.1641 57.0312V54.1797H51.8984ZM21.1016 54.1797H10.8359V57.0312C10.8359 58.5957 12.123 59.8828 13.6875 59.8828H18.25C19.8145 59.8828 21.1016 58.5957 21.1016 57.0312V54.1797ZM11.9766 41.0625C11.9766 40.1176 12.7426 39.3516 13.6875 39.3516H20.5312C21.4762 39.3516 22.2422 40.1176 22.2422 41.0625C22.2422 42.0074 21.4762 42.7734 20.5312 42.7734H13.6875C12.7426 42.7734 11.9766 42.0074 11.9766 41.0625ZM50.7578 41.0625C50.7578 40.1176 51.5238 39.3516 52.4688 39.3516H59.3125C60.2574 39.3516 61.0234 40.1176 61.0234 41.0625C61.0234 42.0074 60.2574 42.7734 59.3125 42.7734H52.4688C51.5238 42.7734 50.7578 42.0074 50.7578 41.0625Z" fill="#0841D1"/>
</svg>