<svg xmlns="http://www.w3.org/2000/svg" width="18" height="18" viewBox="0 0 18 18" fill="none">
<rect width="18" height="18" rx="9" fill="#F4F7FF"/>
<path d="M4.06409 12.4564C4.00277 12.4564 3.95312 12.5061 3.95312 12.5674C3.95312 12.6287 4.00277 12.6784 4.06409 12.6784H11.8784C12.4858 12.6784 12.9793 12.1848 12.9793 11.5775C12.9793 10.9701 12.4858 10.4766 11.8784 10.4766H4.06409C4.00277 10.4766 3.95312 10.5262 3.95312 10.5875C3.95312 10.6489 4.00277 10.6985 4.06409 10.6985C4.54883 10.6985 4.94598 11.0927 4.94598 11.5804C4.94598 12.068 4.55175 12.4623 4.06409 12.4623V12.4564Z" fill="url(#paint0_linear_86986_169471)"/>
<path d="M11.8784 12.6724H4.06409C4.00277 12.6724 3.95312 12.6227 3.95312 12.5614V12.9878C3.98817 12.9965 4.02613 13.0024 4.06409 13.0024H11.8784C12.6668 13.0024 13.3092 12.3599 13.3092 11.5715C13.3092 10.783 12.6668 10.1406 11.8784 10.1406H4.06409C4.02613 10.1406 3.98817 10.1465 3.95312 10.1552V10.5816C3.95312 10.5202 4.00277 10.4706 4.06409 10.4706H11.8784C12.4858 10.4706 12.9793 10.9641 12.9793 11.5715C12.9793 12.1789 12.4858 12.6724 11.8784 12.6724Z" fill="#CBDAFF"/>
<path d="M3.11097 9.58924C3.04964 9.58924 3 9.63888 3 9.7002C3 9.76153 3.04964 9.81117 3.11097 9.81117H10.9253C11.5326 9.81117 12.0262 9.31766 12.0262 8.71027C12.0262 8.10288 11.5326 7.60938 10.9253 7.60938H3.11097C3.04964 7.60938 3 7.65902 3 7.72034C3 7.78166 3.04964 7.83131 3.11097 7.83131C3.59571 7.83131 3.99285 8.22553 3.99285 8.7132C3.99285 9.20086 3.59863 9.59506 3.11097 9.59506V9.58924Z" fill="#CBDAFF"/>
<path d="M10.9253 9.81302H3.11097C3.04964 9.81302 3 9.76338 3 9.70205V10.1284C3.03504 10.1371 3.073 10.143 3.11097 10.143H10.9253C11.7137 10.143 12.359 9.50056 12.359 8.71212C12.359 7.92369 11.7166 7.28125 10.9253 7.28125H3.11097C3.073 7.28125 3.03504 7.2871 3 7.29586V7.72219C3 7.66087 3.04964 7.61123 3.11097 7.61123H10.9253C11.5326 7.61123 12.0262 8.10474 12.0262 8.71212C12.0262 9.31951 11.5326 9.81302 10.9253 9.81302Z" fill="url(#paint1_linear_86986_169471)"/>
<path d="M5.20472 6.72205C5.14339 6.72205 5.09375 6.77169 5.09375 6.83302C5.09375 6.89434 5.14339 6.94398 5.20472 6.94398H13.019C13.6264 6.94398 14.1199 6.45047 14.1199 5.84308C14.1199 5.2357 13.6264 4.74219 13.019 4.74219H5.20472C5.14339 4.74219 5.09375 4.79183 5.09375 4.85315C5.09375 4.91448 5.14339 4.96412 5.20472 4.96412C5.68946 4.96412 6.0866 5.35834 6.0866 5.84601C6.0866 6.33367 5.69238 6.72788 5.20472 6.72788V6.72205Z" fill="url(#paint2_linear_86986_169471)"/>
<path d="M13.019 6.94583H5.20472C5.14339 6.94583 5.09375 6.89619 5.09375 6.83487V7.2612C5.12879 7.26996 5.16675 7.27581 5.20472 7.27581H13.019C13.8074 7.27581 14.4499 6.63337 14.4499 5.84494C14.4499 5.0565 13.8074 4.41406 13.019 4.41406H5.20472C5.16675 4.41406 5.12879 4.41992 5.09375 4.42868V4.85501C5.09375 4.79368 5.14339 4.74404 5.20472 4.74404H13.019C13.6264 4.74404 14.1199 5.23755 14.1199 5.84494C14.1199 6.45233 13.6264 6.94583 13.019 6.94583Z" fill="#CBDAFF"/>
<defs>
<linearGradient id="paint0_linear_86986_169471" x1="3.95312" y1="12.1784" x2="12.9793" y2="12.1844" gradientUnits="userSpaceOnUse">
<stop stop-color="#0841D1"/>
<stop offset="1" stop-color="#6B01D8"/>
</linearGradient>
<linearGradient id="paint1_linear_86986_169471" x1="3" y1="9.49323" x2="12.359" y2="9.49818" gradientUnits="userSpaceOnUse">
<stop stop-color="#0841D1"/>
<stop offset="1" stop-color="#6B01D8"/>
</linearGradient>
<linearGradient id="paint2_linear_86986_169471" x1="5.09375" y1="6.44406" x2="14.1199" y2="6.45004" gradientUnits="userSpaceOnUse">
<stop stop-color="#0841D1"/>
<stop offset="1" stop-color="#6B01D8"/>
</linearGradient>
</defs>
</svg>