<svg xmlns="http://www.w3.org/2000/svg" width="18" height="18" viewBox="0 0 18 18" fill="none">
<rect width="18" height="18" rx="9" fill="#F4F7FF"/>
<path d="M14.4941 9.33298C14.4941 6.29623 12.0338 3.83594 8.99704 3.83594C5.96029 3.83594 3.5 6.29623 3.5 9.33298C3.5 10.9418 4.18948 12.3848 5.28965 13.3908L4.60394 14.0765C4.41555 14.2649 4.41555 14.5663 4.60394 14.7509C4.79232 14.9393 5.09373 14.9393 5.27834 14.7509L6.05448 13.9748C6.90598 14.5135 7.91195 14.83 8.99704 14.83C10.0821 14.83 11.0881 14.5173 11.9396 13.9748L12.7157 14.7509C12.9041 14.9393 13.2055 14.9393 13.3902 14.7509C13.5785 14.5663 13.5785 14.2611 13.3902 14.0765L12.7044 13.3908C13.8046 12.3848 14.4941 10.938 14.4941 9.33298ZM8.99704 13.5754C6.65354 13.5754 4.75464 11.6765 4.75464 9.33298C4.75464 6.98948 6.65354 5.09057 8.99704 5.09057C11.3405 5.09057 13.2394 6.98948 13.2394 9.33298C13.2394 11.6765 11.3405 13.5754 8.99704 13.5754Z" fill="url(#paint0_linear_86986_169457)"/>
<path fill-rule="evenodd" clip-rule="evenodd" d="M5.58863 13.3841L4.75009 14.2226C4.6416 14.3311 4.64374 14.5005 4.74861 14.6033L4.75009 14.6047C4.85858 14.7132 5.02796 14.7111 5.13072 14.6062L5.13218 14.6047L6.02526 13.7117L6.165 13.8001C6.985 14.3189 7.95289 14.6233 8.99704 14.6233C10.0417 14.6233 11.0093 14.3225 11.8285 13.8004L11.9685 13.7113L12.8619 14.6047C12.9704 14.7132 13.1398 14.7111 13.2425 14.6062L13.2455 14.6032C13.3511 14.4997 13.3512 14.3277 13.2455 14.2241L13.244 14.2226L12.4055 13.3841L12.565 13.2382C13.6241 12.2697 14.2874 10.8776 14.2874 9.33298C14.2874 6.41038 11.9196 4.04263 8.99704 4.04263C6.07444 4.04263 3.70669 6.41038 3.70669 9.33298C3.70669 10.8812 4.3699 12.2697 5.42912 13.2382L5.58863 13.3841ZM12.8544 13.2484C13.8669 12.2507 14.4941 10.8638 14.4941 9.33298C14.4941 6.29623 12.0338 3.83594 8.99704 3.83594C5.96029 3.83594 3.5 6.29623 3.5 9.33298C3.5 10.8674 4.12719 12.251 5.13968 13.2484C5.18877 13.2968 5.23877 13.3442 5.28965 13.3908L4.60394 14.0765C4.41555 14.2649 4.41555 14.5663 4.60394 14.7509C4.79232 14.9393 5.09373 14.9393 5.27834 14.7509L6.05448 13.9748C6.90598 14.5135 7.91195 14.83 8.99704 14.83C10.0821 14.83 11.0881 14.5173 11.9396 13.9748L12.7157 14.7509C12.9041 14.9393 13.2055 14.9393 13.3902 14.7509C13.5785 14.5663 13.5785 14.2611 13.3902 14.0765L12.7044 13.3908C12.7553 13.3442 12.8053 13.2968 12.8544 13.2484ZM8.99704 13.7821C6.53939 13.7821 4.54795 11.7906 4.54795 9.33298C4.54795 6.87533 6.53939 4.88388 8.99704 4.88388C11.4547 4.88388 13.4461 6.87533 13.4461 9.33298C13.4461 11.7906 11.4547 13.7821 8.99704 13.7821ZM4.75464 9.33298C4.75464 11.6765 6.65354 13.5754 8.99704 13.5754C11.3405 13.5754 13.2394 11.6765 13.2394 9.33298C13.2394 6.98948 11.3405 5.09057 8.99704 5.09057C6.65354 5.09057 4.75464 6.98948 4.75464 9.33298Z" fill="#282828"/>
<path d="M5.42188 9.33306C5.42188 11.3073 7.02691 12.9161 9.00494 12.9161C10.983 12.9161 12.588 11.3111 12.588 9.33306C12.588 7.35503 10.983 5.75 9.00494 5.75C7.02691 5.75 5.42188 7.35503 5.42188 9.33306ZM9.21217 7.18172V9.44609L10.9679 11.2696C11.0696 11.3751 11.0659 11.5409 10.9604 11.6426C10.8549 11.7444 10.6891 11.7406 10.5874 11.6351L8.75627 9.7362C8.70729 9.68722 8.68093 9.62317 8.68093 9.55158V7.17795C8.68093 7.03101 8.79772 6.91421 8.94466 6.91421C9.09159 6.91421 9.2084 7.03101 9.2084 7.17795L9.21217 7.18172Z" fill="#CBDAFF"/>
<path fill-rule="evenodd" clip-rule="evenodd" d="M9.41886 7.09601V9.36276L11.1167 11.1262M8.6086 9.88082C8.52091 9.79234 8.47423 9.67594 8.47423 9.55158V7.17795C8.47423 6.91687 8.68356 6.70752 8.94466 6.70752C9.1731 6.70752 9.36193 6.86778 9.40558 7.08275L9.41886 7.09601M8.75627 9.7362L10.5874 11.6351C10.6891 11.7406 10.8549 11.7444 10.9604 11.6426C11.0659 11.5409 11.0696 11.3751 10.9679 11.2696L9.21217 9.44609V7.18172L9.2084 7.17795C9.2084 7.03101 9.09159 6.91421 8.94466 6.91421C8.79772 6.91421 8.68093 7.03101 8.68093 7.17795V9.55158C8.68093 9.62317 8.70729 9.68722 8.75627 9.7362ZM5.62857 9.33306C5.62857 11.1933 7.1412 12.7094 9.00494 12.7094C10.8688 12.7094 12.3813 11.1969 12.3813 9.33306C12.3813 7.46918 10.8688 5.95669 9.00494 5.95669C7.14106 5.95669 5.62857 7.46918 5.62857 9.33306ZM9.00494 12.9161C7.02691 12.9161 5.42188 11.3073 5.42188 9.33306C5.42188 7.35503 7.02691 5.75 9.00494 5.75C10.983 5.75 12.588 7.35503 12.588 9.33306C12.588 11.3111 10.983 12.9161 9.00494 12.9161Z" fill="#CBDAFF"/>
<path d="M8.94342 6.91406C8.79648 6.91406 8.67969 7.03086 8.67969 7.1778V9.55144C8.67969 9.61925 8.70605 9.6833 8.75503 9.73605L10.5861 11.635C10.6879 11.7405 10.8536 11.7442 10.9591 11.6425C11.0646 11.5408 11.0684 11.375 10.9667 11.2695L9.21093 9.44594V7.18157C9.21093 7.03463 9.09413 6.91783 8.94719 6.91783L8.94342 6.91406Z" fill="url(#paint1_linear_86986_169457)"/>
<path d="M11.7021 3.1865C11.4535 3.4314 11.4535 3.83454 11.7021 4.07944L13.9213 6.2986C14.17 6.54727 14.5693 6.54727 14.8142 6.2986C15.0629 6.04994 15.0629 5.65056 14.8142 5.40566L12.5951 3.1865C12.3464 2.93783 11.947 2.93783 11.7021 3.1865Z" fill="url(#paint2_linear_86986_169457)"/>
<path fill-rule="evenodd" clip-rule="evenodd" d="M11.8472 3.33378L11.8472 3.33376C11.6807 3.4977 11.6807 3.76824 11.8472 3.93218L11.8483 3.93328L11.8483 3.93329L14.0674 6.15245C14.236 6.32102 14.5036 6.3194 14.667 6.15357L14.6681 6.15245L14.6681 6.15245C14.8366 5.98388 14.835 5.71625 14.6692 5.55293L14.6681 5.55182L14.6681 5.55181L12.4489 3.33265C12.2803 3.16408 12.0127 3.1657 11.8494 3.33153L11.8472 3.33378ZM11.7021 4.07944C11.4535 3.83454 11.4535 3.4314 11.7021 3.1865C11.947 2.93783 12.3464 2.93783 12.5951 3.1865L14.8142 5.40566C15.0629 5.65056 15.0629 6.04994 14.8142 6.2986C14.5693 6.54727 14.17 6.54727 13.9213 6.2986L11.7021 4.07944Z" fill="#282828"/>
<path d="M5.40567 3.1865L3.1865 5.40566C2.93783 5.65433 2.93783 6.0537 3.1865 6.2986C3.43517 6.54727 3.83454 6.54727 4.07944 6.2986L6.2986 4.07944C6.54727 3.83077 6.54727 3.4314 6.2986 3.1865C6.05371 2.93783 5.65057 2.93783 5.40567 3.1865Z" fill="url(#paint3_linear_86986_169457)"/>
<path fill-rule="evenodd" clip-rule="evenodd" d="M5.55182 3.33266L5.55182 3.33265L3.33265 5.55181C3.16408 5.72038 3.1657 5.98802 3.33153 6.15134L3.33266 6.15245L3.33265 6.15245C3.50122 6.32102 3.76885 6.3194 3.93217 6.15357L3.93328 6.15245L3.93329 6.15245L6.15245 3.93329C6.32102 3.76472 6.31941 3.49709 6.15357 3.33376L6.15132 3.33155L6.15134 3.33153C5.98741 3.16508 5.71686 3.16508 5.55293 3.33153L5.55182 3.33266ZM5.40567 3.1865C5.65057 2.93783 6.05371 2.93783 6.2986 3.1865C6.54727 3.4314 6.54727 3.83077 6.2986 4.07944L4.07944 6.2986C3.83454 6.54727 3.43517 6.54727 3.1865 6.2986C2.93783 6.0537 2.93783 5.65433 3.1865 5.40566L5.40567 3.1865Z" fill="#282828"/>
<defs>
<linearGradient id="paint0_linear_86986_169457" x1="3.5" y1="12.3818" x2="14.4941" y2="12.3836" gradientUnits="userSpaceOnUse">
<stop stop-color="#0841D1"/>
<stop offset="1" stop-color="#6B01D8"/>
</linearGradient>
<linearGradient id="paint1_linear_86986_169457" x1="8.67969" y1="10.6261" x2="11.0407" y2="10.6263" gradientUnits="userSpaceOnUse">
<stop stop-color="#0841D1"/>
<stop offset="1" stop-color="#6B01D8"/>
</linearGradient>
<linearGradient id="paint2_linear_86986_169457" x1="11.5156" y1="5.6938" x2="15.0007" y2="5.69436" gradientUnits="userSpaceOnUse">
<stop stop-color="#0841D1"/>
<stop offset="1" stop-color="#6B01D8"/>
</linearGradient>
<linearGradient id="paint3_linear_86986_169457" x1="3" y1="5.6938" x2="6.48511" y2="5.69436" gradientUnits="userSpaceOnUse">
<stop stop-color="#0841D1"/>
<stop offset="1" stop-color="#6B01D8"/>
</linearGradient>
</defs>
</svg>